<svg xmlns="http://www.w3.org/2000/svg" viewBox="0 0 857 856"><path fill="#2250fb" d="m812 317-18 18c2-10 2-19-1-29-3-8-7-16-14-21-6-5-13-9-20-11-47-11-78 46-47 81 4 5 10 9 16 11 11 5 21 4 33 3-9 5-17 16-24 23l-51 51-172 171-59 59-17 16c-2 2-4 6-7 7-5 1-12-9-14-11l-39-39-160-160-44-44c-3-3-14-11-12-15l6-8 16-16 57-56c52-53 105-104 156-158 14-15 30-28 43-44 2 10 4 18 11 26 17 21 52 19 68-2 11-14 11-34 2-50-3-6-8-11-14-14-6-4-13-6-20-6l16-16c3 9 13-1 4-4l34-34-12-11c-9-7-19-14-30-19-47-21-101-20-146 4-21 12-37 28-54 44l-50 51L92 271c-39 39-80 75-88 133-6 41 5 84 29 118 13 19 31 35 47 51l53 52c42 44 85 85 128 128 25 25 49 55 78 75 43 28 99 35 147 17 46-17 78-57 112-91l156-156c30-30 68-60 87-99 22-46 22-101-2-146-6-11-15-31-27-36M535 55c-3 1 0 6 3 4 2-1 0-6-3-4m-4 18c-20 7-9 36 11 29 18-6 7-35-11-29m30 8c-4 3-1 10 4 8 4-2 1-10-4-8m15 14c-5 0-9 1-13 4-29 14-18 61 14 59 5 0 11-2 15-4 28-16 16-60-16-59m-41 19c-3 1-1 6 2 5s1-6-2-5m87 23c-17 6-9 33 8 28 18-6 10-34-8-28m-83 16c-7 2-3 12 4 9 5-2 1-12-4-9m60 6c-4 1-1 8 3 6 5-1 2-8-3-6m58 4c-6 2-3 11 3 9 5-3 2-11-3-9m-84 1c-9 3-5 17 4 15 9-3 5-18-4-15m-33 7c-19 6-9 36 10 29 18-6 9-35-10-29m93 0c-6 3-2 12 4 9 6-2 2-11-4-9m-20 50v-2c10 0 16-17 14-25-4-14-15-21-30-20-17 1-25 25-15 38 5 6 13 12 21 11l10-2m56-34c-18 6-10 36 9 30 20-7 11-37-9-30m-176 4c-17 5-9 32 9 28 19-5 10-33-9-28m146 1c-7 3-3 14 4 11s3-14-4-11m-78 15c-7 3-3 16 5 13 9-3 4-16-5-13m-32 6c-11 3-7 21 4 18 12-3 8-21-4-18m179 3c-7 2-3 12 3 10 7-2 4-13-3-10m-82 7c-11 4-4 22 7 18 12-5 5-22-7-18m-22 6c-4 2-1 7 3 6 3-2 0-8-3-6m-45 2c-5 2-2 11 4 8 5-2 2-11-4-8m124 46v-2c17-2 13-25 10-35-5-3-8-9-15-10-8-1-15 0-21 5-13 9-11 28 0 38 8 7 16 4 26 4m21-40c-5 1-2 9 3 7 5-1 2-9-3-7m-120 1c-13 1-24 9-28 21-7 20 9 44 31 42 17-1 31-14 32-31 0-18-17-35-35-32m141 3c-17 5-8 31 9 26s8-30-9-26m-188 1c-12 4-6 21 6 18 11-4 5-22-6-18m94 12c-9 4-3 17 5 13 8-3 3-16-5-13m68 19c-4 2-2 10 3 8 6-1 3-10-3-8m-72 6c-4 2-1 8 3 7 5-1 2-9-3-7m46 3c-5 3 0 11 4 7 5-3 1-10-4-7m-34 10c-8 3-4 16 4 13 7-3 3-15-4-13m30 5c-19 7-10 37 9 31 21-7 11-38-9-31m-54 13c-18 4-13 35 5 31 8-2 14-7 15-15 0-10-11-19-20-16m34 11c-7 3-4 13 3 11s4-13-3-11m34 14c-14 5-6 25 7 20 13-4 5-24-7-20m-51 8c-8 3-3 16 5 12 7-3 3-15-5-12m33 11c-6 2-2 10 4 8 5-2 1-10-4-8m15 8c-8 3-5 15 3 13s5-15-3-13m29 2c-9 4-4 16 4 13s3-15-4-13m-52 12c-5 1-2 9 2 7 5-2 2-9-2-7m34 6c-19 4-14 34 5 30 20-4 15-34-5-30m40 5 1 1z"/></svg>