<?xml version="1.0" standalone="no"?>
<!DOCTYPE svg PUBLIC "-//W3C//DTD SVG 20010904//EN"
 "http://www.w3.org/TR/2001/REC-SVG-20010904/DTD/svg10.dtd">
<svg version="1.0" xmlns="http://www.w3.org/2000/svg"
 width="1286.000000pt" height="1286.000000pt" viewBox="0 0 1286.000000 1286.000000"
 preserveAspectRatio="xMidYMid meet">
<metadata>
Created by potrace 1.14, written by Peter Selinger 2001-2017
</metadata>
<g transform="translate(0.000000,1286.000000) scale(0.100000,-0.100000)"
fill="#000000" stroke="none">
<path d="M6205 12841 c-8 -7 -34 -11 -89 -12 -33 -1 -44 -4 -35 -10 9 -6 10
-9 2 -9 -6 0 -15 5 -18 10 -5 8 -11 7 -21 -1 -7 -6 -20 -9 -29 -6 -8 4 -21 0
-29 -8 -11 -11 -16 -12 -19 -2 -4 8 -8 9 -14 2 -4 -6 -15 -10 -23 -10 -8 1
-21 -3 -27 -8 -7 -5 -13 -6 -13 -2 0 4 -8 1 -17 -6 -9 -8 -14 -9 -10 -3 7 12
-44 -2 -70 -19 -6 -4 -15 -2 -18 3 -5 8 -12 7 -23 -3 -26 -22 -48 -27 -61 -14
-9 9 -11 8 -6 -3 4 -12 -8 -19 -56 -29 -43 -10 -57 -17 -47 -23 9 -7 4 -8 -14
-5 -21 3 -28 0 -28 -12 0 -12 -2 -13 -9 -3 -7 11 -11 11 -24 -2 -8 -9 -20 -16
-25 -16 -18 0 -62 -27 -55 -34 4 -4 0 -4 -9 -1 -9 4 -19 2 -23 -4 -3 -6 -11
-11 -16 -11 -6 0 -7 5 -3 12 4 7 3 8 -5 4 -6 -4 -9 -11 -6 -16 5 -8 -33 -26
-47 -22 -5 1 -8 -3 -8 -10 0 -6 -3 -9 -6 -5 -4 3 -13 -1 -21 -9 -8 -8 -18 -12
-23 -9 -4 3 -11 -2 -14 -11 -4 -9 -13 -14 -22 -10 -8 3 -13 2 -11 -2 3 -4 -7
-16 -21 -26 -14 -11 -22 -13 -17 -6 5 7 -4 5 -18 -6 -15 -10 -27 -23 -27 -27
0 -5 -4 -6 -9 -3 -5 3 -12 -1 -15 -10 -5 -14 -9 -14 -23 -3 -12 10 -15 10 -9
1 8 -13 -17 -45 -28 -35 -3 4 -6 1 -6 -6 0 -7 -4 -9 -10 -6 -5 3 -10 1 -10 -5
0 -6 -4 -8 -10 -5 -5 3 -10 -1 -10 -9 0 -8 -5 -18 -12 -22 -7 -5 -9 -2 -4 7 5
9 3 8 -6 -2 -7 -8 -21 -18 -30 -22 -10 -3 -18 -11 -18 -17 0 -6 -5 -8 -12 -4
-7 4 -8 3 -4 -4 4 -7 -3 -17 -18 -23 -14 -7 -23 -16 -20 -20 3 -5 0 -9 -7 -9
-6 0 -22 -11 -35 -25 -13 -14 -27 -25 -33 -25 -5 0 -13 -9 -16 -21 -4 -11 -9
-18 -11 -16 -8 7 -64 -46 -64 -61 0 -7 -4 -10 -10 -7 -5 3 -19 -9 -30 -27 -11
-18 -20 -30 -20 -25 0 4 -9 -2 -20 -13 -11 -11 -20 -25 -20 -30 0 -6 -6 -9
-12 -8 -7 2 -12 -3 -10 -11 2 -9 -3 -11 -13 -7 -9 3 -13 2 -10 -4 3 -6 2 -10
-4 -10 -5 0 -13 -9 -16 -21 -4 -11 -9 -18 -12 -15 -7 7 -91 -77 -86 -86 2 -5
0 -8 -5 -8 -14 0 -62 -44 -62 -58 0 -11 -13 -16 -33 -13 -5 1 -6 -3 -2 -9 3
-5 -1 -13 -9 -16 -9 -3 -13 -10 -10 -15 3 -5 0 -9 -6 -9 -15 0 -121 -106 -113
-114 4 -3 2 -6 -4 -6 -13 0 -73 -57 -73 -70 0 -6 -4 -9 -9 -8 -10 3 -91 -80
-91 -93 0 -4 -9 -10 -19 -14 -11 -3 -23 -15 -26 -26 -4 -10 -10 -17 -15 -14
-4 3 -11 -2 -14 -11 -4 -9 -9 -14 -13 -10 -3 3 -11 -4 -18 -17 -6 -12 -17 -21
-23 -20 -6 2 -9 -4 -6 -12 4 -9 -1 -18 -12 -22 -26 -10 -44 -29 -36 -38 4 -5
-1 -5 -11 -2 -11 4 -16 3 -12 -3 3 -6 -1 -13 -9 -16 -9 -3 -14 -10 -11 -14 3
-5 -4 -11 -15 -15 -11 -3 -20 -11 -20 -16 0 -6 -4 -7 -10 -4 -6 4 -7 -1 -3
-11 4 -10 2 -15 -4 -11 -11 7 -45 -28 -36 -37 4 -3 1 -6 -6 -6 -16 0 -91 -73
-91 -88 0 -7 -3 -11 -7 -10 -10 4 -53 -39 -46 -45 2 -3 -4 -8 -15 -11 -11 -4
-23 -14 -26 -22 -3 -9 -11 -12 -17 -8 -8 4 -9 3 -5 -4 4 -7 2 -12 -3 -12 -6 0
-11 -8 -11 -17 0 -9 -3 -14 -6 -11 -3 3 -26 -15 -52 -40 -26 -26 -50 -45 -54
-44 -5 1 -7 -2 -5 -6 3 -12 -59 -72 -67 -64 -4 3 -4 -2 0 -13 4 -11 4 -17 -1
-13 -9 8 -35 -15 -35 -32 0 -6 -4 -9 -8 -6 -5 3 -16 -6 -26 -19 -10 -14 -23
-22 -29 -18 -5 3 -7 1 -4 -4 4 -6 -5 -18 -18 -27 -14 -10 -23 -22 -19 -28 4
-7 3 -8 -4 -4 -6 3 -16 -3 -22 -14 -6 -11 -16 -17 -22 -14 -7 4 -8 3 -4 -4 4
-7 2 -12 -3 -12 -6 0 -10 -3 -8 -7 1 -5 -1 -9 -6 -10 -14 -5 -44 -38 -40 -45
2 -5 -3 -8 -11 -8 -9 0 -16 -7 -16 -17 0 -9 -3 -13 -7 -10 -3 4 -14 -4 -23
-19 -10 -14 -21 -26 -26 -27 -5 -1 -8 -5 -7 -9 2 -5 -1 -8 -5 -8 -5 0 -17 -7
-28 -16 -10 -8 -13 -12 -5 -8 9 5 12 3 7 -4 -4 -7 -14 -12 -22 -12 -9 0 -12
-5 -8 -12 5 -8 2 -9 -10 -5 -14 5 -17 3 -12 -8 3 -9 0 -15 -8 -15 -8 0 -23
-15 -35 -32 -11 -18 -24 -33 -28 -33 -4 0 -7 -3 -6 -7 2 -4 -6 -10 -17 -13
-11 -4 -20 -13 -20 -21 0 -8 -5 -14 -11 -14 -7 0 -22 -11 -35 -25 -13 -14 -21
-25 -18 -25 3 0 -1 -7 -10 -15 -8 -8 -17 -15 -21 -15 -9 0 -55 -51 -55 -61 0
-5 -5 -8 -12 -6 -6 1 -15 -9 -19 -23 -4 -14 -7 -19 -8 -12 -1 10 -4 10 -15 0
-8 -7 -12 -16 -10 -19 2 -3 -8 -12 -22 -20 -14 -7 -30 -21 -35 -31 -6 -10 -14
-16 -19 -13 -6 4 -7 -1 -3 -11 4 -12 3 -15 -5 -10 -11 7 -17 -6 -13 -27 1 -5
-3 -5 -9 -2 -12 7 -62 -40 -52 -49 3 -3 -2 -6 -12 -6 -9 0 -14 -4 -11 -10 3
-5 2 -10 -4 -10 -16 0 -62 -50 -55 -61 3 -5 2 -9 -3 -8 -21 4 -33 -2 -33 -18
0 -9 -3 -13 -7 -10 -7 8 -39 -34 -35 -46 1 -5 -2 -5 -8 -2 -11 7 -50 -30 -50
-47 0 -4 -6 -8 -12 -8 -7 0 -24 -16 -38 -34 -14 -19 -27 -33 -30 -31 -3 1 -17
-11 -32 -26 -15 -16 -25 -29 -22 -29 3 0 -1 -7 -10 -15 -8 -8 -20 -15 -26 -15
-6 0 -9 -3 -7 -7 3 -5 -1 -14 -9 -21 -8 -7 -14 -10 -14 -7 0 3 -16 -11 -35
-31 -19 -19 -35 -40 -35 -45 0 -6 -4 -7 -10 -4 -5 3 -10 0 -10 -7 0 -7 -10
-18 -22 -23 -13 -6 -22 -16 -21 -23 2 -7 -4 -12 -13 -12 -8 0 -12 -4 -9 -10 3
-5 -1 -10 -9 -10 -14 0 -20 -11 -17 -32 0 -4 -5 -5 -13 -2 -7 3 -16 -2 -20
-11 -3 -9 -11 -13 -16 -10 -6 4 -9 3 -8 -2 3 -10 -36 -63 -49 -66 -4 -1 -7 -4
-6 -7 0 -3 -5 -11 -13 -18 -8 -7 -14 -9 -14 -5 0 4 -14 -7 -30 -25 -17 -18
-30 -37 -30 -42 0 -5 -5 -12 -12 -16 -7 -5 -8 -2 -3 7 4 8 -14 -8 -41 -36 -27
-27 -48 -53 -46 -57 2 -5 -2 -8 -7 -8 -15 0 -51 -37 -44 -44 4 -3 -1 -6 -10
-6 -9 0 -22 -10 -28 -22 -15 -27 -39 -53 -39 -41 0 4 -6 -3 -13 -16 -6 -13
-16 -24 -21 -25 -5 0 -22 -12 -38 -26 -20 -17 -24 -26 -15 -32 8 -5 4 -8 -10
-8 -14 0 -23 -6 -23 -16 0 -8 -3 -14 -8 -12 -10 6 -61 -50 -53 -58 3 -4 -2 -4
-12 -1 -10 4 -16 3 -12 -2 3 -5 1 -12 -5 -16 -6 -4 -7 -12 -3 -18 4 -7 -2 -5
-12 3 -10 8 -16 10 -13 5 4 -6 -9 -26 -28 -44 -19 -19 -34 -38 -34 -42 0 -5
-8 -9 -17 -9 -9 0 -14 -3 -10 -6 7 -8 -11 -27 -41 -43 -12 -7 -20 -16 -17 -22
4 -5 -1 -9 -10 -9 -9 0 -13 -4 -10 -10 3 -6 -4 -10 -17 -10 -18 0 -20 -2 -8
-10 13 -8 12 -10 -4 -10 -11 0 -17 -3 -13 -6 8 -8 -18 -34 -33 -34 -6 0 -9 -4
-5 -9 3 -5 -4 -12 -15 -16 -11 -4 -18 -11 -15 -16 4 -5 1 -9 -4 -9 -14 0 -51
-37 -44 -43 2 -3 -5 -8 -16 -12 -12 -3 -21 -13 -21 -21 0 -8 -7 -14 -16 -14
-8 0 -12 -4 -9 -10 3 -5 -1 -10 -9 -10 -8 0 -20 -10 -27 -21 -6 -12 -24 -34
-39 -49 -16 -16 -26 -31 -23 -34 4 -3 -1 -6 -11 -6 -9 0 -20 -8 -23 -17 -4
-10 -17 -28 -29 -39 -13 -12 -20 -25 -17 -28 4 -3 1 -6 -6 -6 -7 0 -9 -4 -6
-10 3 -5 -1 -10 -10 -10 -11 0 -15 -5 -12 -14 4 -10 1 -13 -9 -9 -10 4 -12 0
-7 -13 4 -12 3 -15 -5 -10 -7 4 -12 1 -12 -8 0 -9 -7 -16 -16 -16 -8 0 -12 -5
-9 -10 3 -6 0 -17 -7 -25 -31 -34 -38 -45 -31 -45 4 0 -1 -7 -11 -15 -11 -8
-16 -15 -11 -15 5 0 0 -7 -11 -15 -10 -8 -14 -15 -7 -15 7 0 1 -11 -13 -25
-14 -14 -23 -29 -20 -34 3 -5 -1 -12 -10 -15 -8 -3 -12 -10 -9 -16 3 -5 2 -10
-3 -10 -9 0 -22 -33 -19 -46 1 -3 -6 -10 -15 -15 -11 -6 -15 -16 -11 -26 4
-11 3 -14 -5 -9 -7 4 -12 2 -12 -3 0 -19 -2 -26 -13 -46 -6 -11 -10 -23 -9
-27 1 -5 -2 -8 -8 -8 -5 0 -10 -7 -10 -16 0 -9 -5 -12 -12 -8 -9 5 -9 2 1 -9
9 -12 10 -17 2 -17 -7 0 -9 -5 -6 -10 3 -6 -1 -13 -10 -16 -13 -6 -14 -8 -3
-15 11 -7 11 -9 -1 -9 -8 0 -11 -6 -7 -16 3 -8 2 -12 -4 -9 -9 5 -15 -15 -11
-37 0 -5 -3 -8 -9 -8 -5 0 -10 -10 -10 -23 0 -13 -6 -29 -12 -36 -11 -11 -10
-12 1 -6 9 5 8 -1 -4 -18 -9 -15 -14 -31 -10 -37 3 -5 1 -10 -4 -10 -6 0 -11
-8 -11 -18 0 -10 -3 -22 -7 -26 -4 -4 -8 -21 -9 -39 -3 -46 -3 -49 -12 -44 -4
3 -8 -15 -9 -40 -1 -25 -8 -52 -15 -61 -11 -13 -11 -15 2 -7 12 6 12 5 3 -5
-6 -7 -9 -19 -6 -28 5 -11 2 -13 -6 -7 -10 6 -11 3 -2 -14 8 -15 9 -21 1 -21
-6 0 -9 -4 -5 -9 3 -5 2 -12 -3 -15 -5 -3 -7 -28 -6 -56 1 -27 -2 -50 -7 -50
-5 0 -9 -5 -9 -11 0 -5 6 -7 13 -3 9 6 9 5 0 -8 -7 -8 -10 -18 -6 -22 11 -10
12 -37 2 -30 -12 7 -6 -403 6 -430 6 -14 5 -17 -4 -11 -10 6 -11 3 -3 -11 14
-26 18 -76 8 -93 -6 -10 -5 -12 2 -7 8 5 12 -1 13 -16 4 -61 6 -76 18 -110 7
-21 10 -42 6 -48 -3 -5 -1 -10 5 -10 7 0 10 -7 6 -15 -3 -8 -1 -15 5 -15 6 0
7 -5 4 -10 -4 -6 -1 -18 7 -27 11 -14 11 -15 0 -9 -11 6 -11 4 -3 -13 29 -56
29 -59 18 -71 -9 -10 -9 -11 1 -6 8 5 12 0 12 -13 0 -12 5 -21 10 -21 6 0 9
-3 9 -7 -5 -29 2 -53 14 -47 9 6 9 4 -1 -8 -10 -13 -10 -17 3 -22 11 -4 14
-13 10 -25 -3 -10 1 -24 10 -31 8 -7 15 -20 15 -30 0 -9 10 -30 22 -46 13 -15
17 -24 9 -20 -9 6 -8 1 3 -16 9 -14 13 -28 9 -31 -3 -4 -1 -7 6 -7 7 0 9 -4 6
-10 -3 -6 -2 -10 3 -10 7 0 57 -97 55 -110 0 -3 8 -11 18 -18 11 -7 19 -22 19
-33 0 -10 5 -19 10 -19 6 0 10 -7 10 -16 0 -8 5 -12 10 -9 6 4 10 3 9 -2 -4
-21 2 -44 10 -39 5 3 14 -7 21 -23 6 -16 20 -38 31 -50 12 -13 15 -21 7 -21
-6 0 -3 -6 7 -14 11 -8 24 -12 29 -9 5 4 6 1 2 -5 -3 -6 1 -17 10 -26 8 -9 12
-22 8 -28 -4 -7 -4 -10 1 -6 8 8 55 -40 55 -55 0 -5 5 -5 10 -2 6 3 10 0 10
-7 0 -7 22 -36 49 -65 27 -28 46 -54 43 -57 -3 -3 1 -6 10 -6 17 0 58 -41 58
-58 0 -11 14 -16 33 -13 5 1 6 -3 2 -9 -3 -5 1 -13 9 -16 9 -3 16 -10 16 -16
0 -11 26 -39 31 -34 2 2 13 -6 24 -17 12 -11 14 -17 5 -13 -8 4 -6 0 4 -8 11
-9 24 -16 29 -16 4 0 5 -4 2 -10 -3 -5 -1 -10 5 -10 18 0 53 -38 45 -49 -3 -7
-3 -11 2 -10 20 3 34 -2 28 -11 -3 -6 1 -10 9 -10 9 0 16 -7 16 -16 0 -8 5
-12 10 -9 6 3 10 -2 10 -11 0 -10 3 -15 6 -11 8 7 34 -17 34 -32 0 -5 9 -13
20 -16 11 -3 20 -13 20 -22 0 -10 6 -13 16 -9 8 3 12 2 9 -4 -3 -6 -1 -10 5
-10 6 0 8 -4 5 -10 -6 -9 8 -14 28 -11 5 1 6 -3 2 -9 -3 -5 -1 -10 4 -10 6 0
11 -7 11 -17 0 -9 3 -14 6 -10 8 8 34 -18 34 -33 0 -6 4 -9 8 -6 5 3 14 -4 22
-14 8 -10 17 -17 22 -14 4 3 5 -2 2 -10 -4 -11 0 -16 10 -16 9 0 16 -7 16 -16
0 -11 5 -14 17 -10 10 4 14 4 10 0 -3 -4 3 -15 15 -25 11 -11 17 -19 12 -20
-5 0 2 -4 14 -10 13 -5 26 -18 29 -29 3 -11 8 -18 12 -16 3 2 12 -2 19 -10 7
-8 9 -14 5 -15 -4 0 3 -4 15 -10 13 -5 26 -18 29 -29 3 -10 13 -22 23 -25 10
-3 21 -13 24 -21 3 -8 10 -12 16 -9 6 4 7 -1 3 -11 -5 -14 -3 -16 11 -11 10 4
15 3 11 -3 -3 -6 -1 -10 4 -10 6 0 11 -7 11 -16 0 -8 3 -13 8 -11 9 6 33 -19
25 -27 -4 -3 1 -6 10 -6 9 0 17 -6 17 -14 0 -8 9 -17 19 -21 11 -3 22 -13 25
-21 3 -8 10 -12 16 -9 5 3 7 0 4 -9 -3 -9 2 -17 15 -21 12 -3 21 -13 21 -22 0
-10 6 -13 16 -9 8 3 12 2 9 -4 -3 -6 -1 -10 4 -10 6 0 11 -7 11 -16 0 -10 5
-14 16 -10 8 3 12 2 9 -4 -3 -6 -1 -10 4 -10 6 0 11 -6 11 -14 0 -8 9 -18 20
-21 11 -3 20 -13 20 -21 0 -8 5 -12 10 -9 6 3 10 1 10 -5 0 -6 5 -8 12 -4 7 4
8 3 4 -5 -4 -6 -1 -14 8 -17 8 -3 18 -14 21 -25 4 -10 11 -19 16 -19 14 0 39
-26 39 -40 0 -6 3 -9 7 -7 10 6 34 -19 26 -27 -4 -3 -1 -6 6 -6 20 0 43 -27
28 -33 -7 -3 -4 -6 6 -6 21 -1 49 -26 40 -35 -4 -3 1 -6 10 -6 9 0 17 -8 17
-17 0 -15 2 -16 10 -3 8 12 10 10 10 -8 0 -13 4 -21 8 -18 5 3 15 -6 22 -19 7
-13 17 -22 21 -20 4 3 11 -4 14 -16 6 -17 9 -19 16 -8 6 10 9 8 9 -8 0 -14 6
-23 15 -23 13 0 19 -12 16 -32 0 -4 8 -5 19 -3 12 2 18 0 15 -6 -4 -5 1 -12 9
-15 9 -3 16 -13 16 -22 0 -8 3 -13 6 -9 8 8 34 -18 34 -33 0 -6 4 -9 9 -5 5 3
13 -4 16 -16 4 -13 12 -18 21 -15 9 3 12 1 9 -4 -3 -6 1 -13 9 -16 9 -3 13
-10 10 -15 -3 -5 0 -9 6 -9 15 0 41 -26 33 -34 -4 -3 1 -6 10 -6 9 0 17 -7 17
-17 0 -9 3 -13 6 -10 9 8 45 -33 39 -43 -3 -5 4 -6 15 -3 12 3 20 2 19 -3 -4
-17 13 -44 27 -44 8 0 14 -7 14 -16 0 -10 5 -14 16 -10 8 3 12 2 9 -4 -3 -6
-1 -10 4 -10 6 0 11 -7 11 -17 0 -9 3 -14 6 -10 8 8 34 -18 34 -33 0 -6 3 -9
8 -7 9 6 33 -19 25 -27 -4 -3 -1 -6 6 -6 16 0 41 -25 41 -41 0 -7 3 -10 6 -6
8 7 34 -17 34 -32 0 -10 14 -15 33 -12 5 1 6 -3 2 -9 -3 -5 1 -13 9 -16 8 -3
18 -14 21 -25 4 -10 13 -19 21 -19 8 0 14 -7 14 -17 0 -9 3 -14 6 -10 8 8 33
-16 27 -25 -2 -5 1 -8 7 -8 15 0 40 -25 40 -40 0 -6 4 -9 9 -5 5 3 13 -4 16
-16 4 -13 12 -18 21 -15 9 3 12 1 9 -4 -3 -6 1 -13 9 -16 9 -3 16 -11 16 -18
0 -12 40 -42 52 -38 4 1 5 -5 2 -13 -4 -10 0 -15 12 -15 9 0 15 -3 11 -6 -7
-7 17 -34 30 -34 15 0 53 -48 53 -66 0 -14 3 -14 15 -4 13 11 14 10 9 -5 -5
-12 -4 -16 4 -11 6 3 13 -3 17 -14 3 -11 13 -20 21 -20 8 0 14 -7 14 -16 0
-10 6 -14 15 -10 8 3 14 2 13 -2 -5 -15 36 -63 48 -58 8 3 13 0 11 -7 -1 -7 3
-11 10 -10 7 2 10 -3 7 -11 -3 -9 3 -17 15 -21 12 -3 21 -13 21 -22 0 -10 6
-13 16 -9 8 3 13 2 10 -2 -2 -4 2 -16 10 -27 8 -10 14 -16 14 -12 0 4 11 -3
24 -15 13 -13 21 -27 18 -32 -3 -5 3 -6 13 -2 16 6 16 4 4 -11 -9 -10 -9 -14
-2 -9 7 4 20 -2 30 -13 9 -11 20 -18 25 -15 4 3 5 -1 2 -9 -3 -8 6 -18 21 -25
14 -7 23 -17 20 -22 -3 -6 1 -10 10 -10 9 0 19 -9 22 -20 3 -11 9 -18 13 -15
4 3 11 -2 14 -11 3 -8 10 -13 15 -9 6 3 8 -3 6 -14 -3 -14 1 -18 16 -14 14 4
19 0 19 -13 0 -11 13 -28 29 -39 17 -11 32 -27 34 -37 3 -10 12 -18 21 -18 9
0 16 -6 16 -14 0 -8 9 -18 20 -21 11 -4 18 -10 15 -14 -2 -4 7 -14 20 -21 14
-7 25 -20 25 -27 0 -8 3 -12 8 -10 4 3 13 -1 20 -9 7 -8 10 -14 5 -14 -4 0 2
-6 12 -14 11 -8 23 -12 27 -10 4 3 5 -2 2 -10 -4 -10 -1 -16 8 -16 16 0 58
-44 58 -61 0 -6 7 -9 15 -5 8 3 14 0 12 -7 -1 -7 3 -11 10 -10 7 2 10 -6 8
-16 -3 -14 1 -18 16 -14 15 4 18 2 12 -12 -5 -14 -3 -16 7 -10 10 6 12 4 6
-11 -4 -10 -4 -15 0 -12 9 10 46 -11 39 -22 -3 -5 4 -11 15 -15 11 -3 20 -14
20 -22 0 -9 3 -14 6 -10 8 8 34 -18 34 -33 0 -7 7 -9 16 -6 8 3 12 2 9 -4 -3
-6 -1 -10 4 -10 6 0 11 -7 11 -17 0 -9 3 -14 6 -10 8 8 34 -18 34 -34 0 -7 3
-10 6 -6 8 8 34 -18 34 -34 0 -7 3 -10 6 -6 8 8 34 -18 34 -33 0 -7 7 -9 16
-6 8 3 12 2 9 -4 -3 -6 -1 -10 4 -10 6 0 11 -8 11 -17 0 -9 3 -14 6 -10 8 8
34 -18 34 -34 0 -7 3 -10 6 -6 8 8 33 -16 27 -25 -2 -5 2 -8 10 -8 8 0 18 -7
21 -16 3 -8 10 -13 15 -9 6 3 8 -3 6 -14 -2 -14 1 -18 15 -14 12 3 19 -3 24
-20 3 -14 15 -27 27 -30 12 -3 18 -10 14 -16 -3 -6 1 -11 9 -11 8 0 18 -5 22
-12 5 -7 3 -8 -6 -3 -9 5 -11 4 -6 -3 4 -7 12 -12 18 -12 5 0 23 -13 38 -30
15 -16 31 -30 34 -30 3 0 15 -9 26 -20 12 -12 26 -18 33 -13 8 5 8 2 -1 -9
-11 -14 -10 -17 8 -20 11 -2 19 -7 18 -11 -4 -12 44 -37 57 -30 5 4 7 3 3 -2
-9 -9 29 -45 47 -45 6 0 21 -11 33 -25 13 -14 27 -23 32 -20 6 3 10 1 10 -4 0
-6 16 -17 35 -25 19 -8 38 -22 41 -30 3 -9 10 -13 15 -10 5 3 9 0 9 -5 0 -6 3
-10 8 -10 18 3 33 -2 28 -9 -2 -4 5 -9 17 -9 12 -1 23 -7 25 -13 2 -5 10 -10
18 -10 8 0 14 -5 14 -11 0 -5 5 -7 10 -4 6 3 13 0 16 -9 3 -8 14 -13 25 -11
11 2 19 -2 19 -9 0 -12 6 -15 53 -19 13 -1 24 -8 23 -16 -1 -8 6 -16 14 -18
13 -4 13 -3 0 7 -13 10 -13 11 0 6 8 -3 23 -9 33 -12 9 -4 17 -9 17 -13 0 -4
10 -7 22 -8 11 -1 25 -8 29 -15 7 -10 9 -10 9 2 1 12 3 11 11 -3 8 -14 14 -15
31 -6 13 7 18 7 14 1 -7 -12 4 -21 31 -27 10 -2 32 -8 50 -14 17 -5 34 -7 37
-3 3 3 6 0 6 -6 0 -6 7 -9 17 -5 12 5 14 3 8 -7 -5 -9 -4 -11 4 -6 6 4 17 4
24 -1 7 -5 28 -10 47 -12 19 -1 38 -7 42 -14 6 -9 8 -8 8 3 0 9 3 11 8 5 7
-11 25 -14 84 -18 28 -2 34 -5 26 -15 -9 -10 -6 -11 16 -3 19 8 26 7 26 -2 0
-8 4 -7 10 3 9 14 14 7 11 -13 -1 -4 7 -3 18 2 10 6 21 7 25 4 9 -9 37 -13 32
-4 -3 4 4 7 14 7 10 0 17 -3 14 -7 -2 -4 95 -7 216 -8 175 -2 220 1 220 11 0
9 3 9 8 2 4 -6 18 -9 32 -7 14 2 44 4 68 4 23 1 42 6 42 12 0 8 4 7 12 -1 9
-9 15 -7 25 6 8 9 12 12 9 5 -4 -7 1 -11 14 -10 11 1 20 5 20 10 0 4 4 6 9 2
5 -3 12 -1 16 5 4 7 13 6 27 -1 13 -7 18 -7 14 -1 -4 6 2 11 11 11 41 1 59 4
68 11 6 4 18 6 28 5 9 -2 17 1 17 7 0 6 6 6 15 -2 12 -10 16 -9 21 4 3 9 10
13 15 10 5 -3 9 -1 9 5 0 5 8 8 18 6 9 -1 26 3 37 9 11 6 25 12 30 12 6 1 13
3 18 4 4 1 10 3 15 4 4 1 17 7 30 14 12 7 22 10 22 6 0 -3 6 -1 13 5 8 6 17 8
20 4 4 -3 7 -1 7 6 0 7 4 10 9 6 5 -3 13 0 16 6 4 5 13 8 21 5 8 -3 14 -1 14
5 0 6 5 7 10 4 6 -3 10 -1 10 5 0 6 5 8 10 5 6 -3 10 -1 10 4 0 6 3 10 8 9 11
-2 46 14 54 26 5 7 8 6 8 -3 0 -10 5 -8 18 6 9 11 22 18 28 16 6 -2 17 3 24
12 7 8 19 15 27 15 8 0 11 4 8 10 -3 6 1 7 9 4 9 -4 16 -1 16 6 0 7 7 10 16 6
11 -4 15 -2 11 8 -4 10 0 12 15 8 17 -4 20 -2 15 12 -4 10 -3 15 4 11 5 -4 16
-1 24 5 8 7 15 9 15 4 0 -5 5 -1 11 9 5 9 15 17 20 17 6 0 17 7 26 15 8 8 20
12 26 8 7 -3 9 -3 5 1 -3 4 2 16 13 27 22 22 33 25 24 7 -4 -7 0 -5 8 4 8 10
18 14 22 10 5 -4 5 -1 1 6 -5 8 2 16 18 22 14 5 26 14 26 20 0 6 5 8 11 5 6
-4 13 3 16 15 4 16 8 18 14 8 7 -10 9 -9 9 5 0 9 5 17 10 17 13 0 50 37 50 50
0 6 3 9 8 9 28 -5 41 2 35 19 -3 9 -3 14 1 10 4 -3 24 10 44 30 19 20 40 36
46 34 6 -2 8 -1 5 3 -8 8 173 193 184 187 4 -2 6 1 5 6 -2 5 25 36 60 69 34
33 59 63 55 66 -3 4 1 7 10 7 9 0 23 9 31 21 9 13 19 18 27 14 8 -6 10 -4 4 4
-7 13 62 87 78 83 4 -1 6 4 5 10 -2 7 4 11 12 10 8 -2 12 -1 8 3 -3 3 9 22 28
40 19 19 34 40 34 47 0 9 3 9 10 -2 8 -13 10 -12 10 3 0 9 4 17 9 17 5 0 13 9
16 20 3 11 13 20 22 20 8 0 17 9 20 20 3 11 11 20 19 20 7 0 18 9 24 20 6 11
15 18 21 15 5 -4 9 -3 8 2 -1 4 -1 15 0 23 1 13 2 13 11 0 8 -13 10 -12 10 3
0 9 5 17 10 17 6 0 10 7 10 15 0 9 6 12 15 8 9 -3 15 -2 13 3 -4 12 49 63 57
55 4 -3 5 -1 3 5 -4 13 56 74 74 74 10 0 9 3 -2 10 -13 8 -12 10 3 10 9 0 17
5 17 11 0 6 6 17 14 25 11 11 16 11 19 1 3 -7 6 -5 6 6 1 9 6 17 11 17 6 0 10
7 10 15 0 8 3 14 8 13 4 -2 28 18 54 44 26 27 52 48 57 48 6 0 10 3 9 7 -4 12
39 52 47 45 4 -4 5 0 3 8 -1 8 3 14 10 12 6 -1 11 1 11 5 -1 5 -1 15 0 23 1
13 2 13 11 0 6 -10 10 -11 10 -3 0 18 32 53 42 47 5 -3 7 -2 6 3 -2 4 20 30
47 58 28 27 48 54 47 59 -2 6 0 8 4 4 4 -4 13 0 21 10 10 11 12 12 8 2 -4 -8
0 -6 9 4 8 10 13 23 10 28 -3 5 -2 7 3 6 4 -2 24 14 44 33 20 20 46 42 58 48
11 7 21 17 21 23 0 5 33 42 72 82 40 39 72 75 70 79 -1 5 2 6 8 2 5 -3 10 -1
10 4 0 6 8 11 17 11 9 0 14 3 11 6 -8 7 48 64 62 64 6 0 9 4 6 8 -2 4 9 18 25
31 16 13 26 28 22 34 -3 6 -1 7 6 3 6 -4 14 0 17 8 3 9 10 13 15 10 5 -3 9 0
9 7 0 15 47 59 54 51 3 -3 6 1 6 9 0 8 14 25 30 38 16 13 27 28 23 35 -3 6 -3
8 2 4 9 -9 35 16 35 34 0 10 2 10 9 -1 7 -11 10 -9 16 8 3 11 10 21 15 21 5 0
21 17 35 37 14 21 25 33 25 28 0 -5 13 5 29 22 16 18 32 29 35 26 5 -6 10 12
7 29 0 4 6 5 15 1 8 -3 14 -1 12 4 -3 9 80 96 95 99 4 1 10 2 15 3 4 1 0 6 -8
11 -13 8 -12 10 3 10 10 0 20 7 23 15 3 8 15 17 26 21 16 5 18 8 7 15 -8 5 -9
9 -3 9 6 0 28 16 50 35 21 19 42 35 47 35 4 0 7 5 7 11 0 6 19 29 43 51 23 22
41 44 39 49 -1 6 2 8 7 5 5 -3 12 1 15 10 3 8 10 13 15 10 5 -3 11 4 14 15 4
15 11 20 22 15 9 -3 13 -2 10 4 -5 9 103 122 141 147 18 12 18 12 -1 7 -12 -3
-9 1 8 11 16 9 25 21 21 27 -4 7 -3 8 4 4 7 -4 12 -2 12 4 0 6 5 8 10 5 6 -3
10 0 10 7 0 8 9 20 19 28 11 7 18 17 15 22 -3 5 -2 8 3 7 20 -3 33 2 31 14 -2
6 3 11 10 9 6 -1 11 1 10 6 -2 4 29 39 69 78 40 39 69 75 65 79 -4 3 -2 5 3 4
6 -2 52 39 104 91 52 52 98 94 103 92 4 -1 8 3 8 9 0 6 29 39 65 75 35 35 61
64 57 64 -4 1 6 8 21 16 16 8 25 20 21 26 -4 7 -3 8 4 4 7 -4 12 -2 12 4 0 6
5 8 12 4 8 -5 9 -2 5 10 -4 9 -3 15 1 13 10 -7 32 19 24 29 -4 4 -2 4 5 0 7
-4 19 4 29 19 9 13 21 22 27 18 7 -4 8 0 3 13 -4 10 -4 15 0 11 4 -4 17 4 29
18 13 13 26 21 29 18 3 -4 6 -2 6 4 0 15 36 54 44 46 3 -3 6 -1 6 6 0 14 30
47 31 34 0 -4 5 3 10 16 6 15 14 21 25 17 8 -3 12 -2 9 4 -6 9 131 150 146
150 5 0 8 4 7 8 -4 10 80 92 94 92 6 0 9 2 6 5 -3 3 12 23 33 45 22 22 39 45
39 50 0 6 7 10 16 10 8 0 12 5 9 10 -3 5 -1 10 5 10 6 0 8 4 5 10 -3 5 1 10 9
10 9 0 15 3 14 8 -2 4 8 19 21 34 13 14 21 28 20 31 -2 3 7 14 21 26 14 11 21
20 17 21 -4 0 3 11 17 23 14 13 23 27 19 30 -3 4 -2 7 4 7 6 0 16 14 22 30 5
17 14 30 19 30 6 0 13 11 16 25 4 14 11 25 16 25 6 0 10 7 10 15 0 9 9 26 20
38 11 12 18 27 15 35 -2 7 0 10 5 7 6 -3 10 3 10 13 0 11 7 25 15 32 9 7 14
19 11 26 -3 8 0 13 7 11 7 -1 11 6 9 15 -1 9 2 19 8 23 5 3 10 13 10 21 0 9 7
22 15 31 8 8 13 19 10 24 -4 5 -2 9 3 9 9 0 27 47 24 63 -1 4 2 7 8 7 6 0 9 3
9 8 -4 27 2 52 12 46 7 -4 10 -1 7 7 -3 8 1 26 9 42 7 15 11 27 7 27 -3 0 1
12 11 26 11 18 12 24 4 18 -12 -7 -12 -5 -1 9 8 9 11 21 8 26 -4 5 2 14 11 20
13 8 14 10 4 11 -12 0 -12 3 -3 12 7 7 12 25 12 41 0 15 4 26 8 23 4 -2 7 11
7 30 -1 19 1 34 5 34 4 0 6 10 5 23 -1 12 5 31 14 41 9 11 10 16 4 12 -15 -8
-18 10 -3 19 5 3 10 14 10 23 0 15 -2 15 -10 2 -5 -8 -10 -10 -10 -4 0 6 3 14
7 18 4 3 9 17 11 29 6 39 7 42 16 56 6 10 5 12 -2 7 -7 -4 -12 -1 -12 9 0 10
5 13 13 9 7 -5 6 0 -3 11 -9 11 -10 16 -2 11 6 -4 12 -2 12 3 0 6 -6 11 -12
11 -10 0 -10 2 -1 8 15 10 14 74 -1 65 -6 -4 -5 0 1 8 17 21 17 303 1 293 -7
-5 -8 -2 -2 7 5 8 10 25 11 39 3 20 1 22 -7 10 -5 -8 -10 -10 -10 -5 0 6 5 16
11 22 8 8 8 13 0 17 -6 4 -11 12 -11 17 0 6 5 7 12 3 7 -5 8 -3 2 7 -9 14 -12
27 -18 65 -2 11 -7 27 -11 34 -5 9 -4 11 3 6 7 -4 12 -2 12 3 0 6 -5 11 -11
11 -8 0 -7 6 2 17 8 10 9 14 2 10 -6 -4 -14 -3 -17 2 -4 5 -2 12 2 15 5 3 7
17 4 32 -3 18 -7 22 -13 13 -5 -9 -7 -3 -5 16 2 17 -1 36 -8 44 -9 12 -8 13 4
6 9 -5 7 1 -5 15 -11 13 -14 20 -6 15 10 -6 12 -4 5 6 -5 8 -7 22 -6 32 2 9
-2 17 -7 17 -6 0 -11 10 -11 23 0 13 -6 29 -12 36 -11 11 -10 12 2 6 12 -6 13
-5 3 6 -7 7 -13 21 -13 31 0 10 -4 18 -8 18 -4 0 -9 12 -10 28 -1 15 -7 29
-13 30 -6 3 -5 10 3 20 10 12 10 14 1 8 -12 -6 -18 5 -14 27 0 4 -3 7 -9 7 -5
0 -10 9 -10 20 0 11 -4 20 -9 20 -5 0 -8 8 -7 18 2 9 0 19 -3 22 -3 3 -18 28
-32 57 -19 38 -23 55 -15 64 8 9 8 10 0 6 -7 -4 -15 0 -18 9 -3 8 -10 13 -15
10 -5 -3 -7 3 -4 14 3 11 0 20 -6 20 -6 0 -11 9 -11 20 0 11 -3 20 -7 20 -5 0
-19 24 -33 54 -13 30 -27 53 -31 50 -3 -2 -14 14 -24 36 -10 22 -22 40 -27 40
-5 0 -6 5 -3 10 3 6 -2 10 -12 10 -15 0 -16 2 -3 10 13 8 13 10 -1 10 -9 0
-19 9 -22 21 -4 13 -10 18 -18 13 -8 -4 -10 -3 -5 5 5 7 -1 20 -13 30 -12 10
-21 23 -21 28 0 6 -18 29 -40 52 -22 22 -40 43 -40 46 0 3 -12 17 -26 30 -15
14 -23 25 -18 26 5 1 -2 4 -16 8 -19 6 -31 1 -52 -18 -15 -14 -25 -29 -22 -33
3 -5 2 -8 -3 -7 -18 3 -33 -1 -31 -9 3 -10 -51 -62 -64 -62 -5 0 -7 -4 -4 -9
3 -5 -1 -12 -10 -15 -8 -3 -12 -11 -9 -16 4 -6 2 -9 -3 -8 -13 4 -72 -58 -64
-67 3 -3 -2 -3 -12 1 -14 5 -17 4 -12 -4 4 -7 2 -12 -4 -12 -7 0 -9 7 -6 16
10 27 21 116 21 174 0 286 -159 539 -415 662 -41 20 -91 39 -110 44 -19 4 -42
9 -50 11 -109 25 -333 15 -375 -17 -5 -4 -24 -11 -42 -14 -17 -4 -37 -14 -43
-22 -7 -7 -16 -11 -21 -8 -5 3 -9 0 -9 -5 0 -6 -9 -11 -20 -11 -11 0 -20 -3
-20 -7 0 -5 -20 -20 -44 -36 -77 -48 -209 -207 -231 -277 -4 -14 -11 -27 -15
-30 -6 -5 -38 -111 -46 -154 -4 -23 -15 -115 -16 -131 -2 -39 29 -213 41 -230
4 -5 13 -29 21 -52 7 -24 17 -43 22 -43 4 0 8 -7 8 -15 0 -14 9 -29 60 -99 8
-12 47 -53 87 -93 57 -55 94 -81 165 -116 51 -25 109 -49 128 -53 49 -11 50
-11 53 -14 13 -12 282 -12 282 0 0 1 12 3 26 4 14 2 32 6 40 11 8 4 -3 -8 -23
-27 -21 -19 -35 -38 -31 -42 4 -4 -1 -4 -12 0 -11 4 -17 4 -13 -1 4 -4 -13
-27 -37 -50 -25 -23 -45 -47 -45 -55 0 -7 -3 -11 -6 -7 -7 7 -84 -69 -84 -83
0 -6 -3 -9 -7 -8 -10 4 -53 -39 -53 -52 0 -6 -3 -9 -8 -8 -10 4 -101 -90 -94
-96 3 -4 0 -6 -7 -6 -14 0 -71 -56 -71 -70 0 -6 -3 -9 -7 -8 -11 3 -102 -90
-95 -96 3 -3 0 -6 -7 -6 -14 0 -62 -46 -55 -53 3 -2 -7 -8 -23 -11 -21 -6 -24
-9 -12 -17 12 -7 11 -9 -3 -9 -10 0 -18 -7 -18 -15 0 -8 -4 -14 -9 -13 -10 4
-117 -104 -113 -114 1 -5 -5 -8 -13 -8 -8 0 -15 -5 -15 -11 0 -5 -4 -7 -10 -4
-6 4 -7 -1 -3 -12 3 -10 3 -15 -2 -11 -8 8 -55 -40 -55 -55 0 -5 -4 -5 -10 -2
-5 3 -10 1 -10 -4 0 -6 -8 -11 -17 -11 -15 0 -16 -2 -3 -10 13 -9 13 -10 0
-10 -17 0 -70 -55 -70 -73 0 -6 -3 -8 -6 -4 -7 7 -54 -38 -54 -53 0 -5 -4 -10
-10 -10 -13 0 -145 -133 -142 -142 1 -5 -5 -8 -13 -8 -8 0 -15 -5 -15 -11 0
-5 -5 -7 -10 -4 -6 4 -9 3 -8 -2 2 -4 -17 -28 -42 -52 -25 -24 -44 -48 -42
-53 1 -5 -2 -7 -8 -3 -5 3 -10 1 -10 -6 0 -7 -8 -9 -21 -6 -12 3 -19 3 -16 1
9 -10 -153 -165 -165 -158 -6 4 -8 3 -5 -3 4 -6 0 -16 -8 -23 -8 -7 -12 -17
-8 -24 3 -6 3 -8 -2 -4 -4 4 -29 -15 -55 -42 -27 -27 -51 -46 -54 -43 -3 4 -6
1 -6 -6 0 -17 -58 -71 -78 -72 -10 0 -12 -3 -4 -6 6 -2 12 -10 12 -16 0 -5 -3
-8 -6 -4 -9 9 -54 -35 -47 -47 3 -6 3 -8 -2 -4 -4 4 -19 -5 -33 -20 -14 -15
-30 -26 -34 -24 -4 1 -8 -3 -8 -8 0 -6 -57 -67 -127 -137 -71 -70 -127 -131
-126 -135 2 -4 -5 -4 -15 -1 -9 3 -14 3 -10 -2 7 -8 -148 -165 -163 -165 -5 0
-9 -5 -9 -10 0 -12 -90 -105 -134 -137 -16 -13 -27 -23 -22 -23 4 0 -13 -21
-38 -46 -25 -25 -50 -43 -56 -39 -5 3 -7 0 -5 -7 3 -8 -14 -31 -39 -53 -25
-21 -42 -43 -39 -49 3 -6 3 -8 -2 -4 -4 4 -18 -4 -31 -17 -13 -14 -27 -25 -33
-25 -5 0 -12 -9 -16 -19 -3 -11 -13 -22 -21 -25 -8 -3 -12 -10 -9 -16 4 -6 -1
-7 -12 -3 -10 3 -15 3 -11 -1 6 -8 -206 -226 -220 -226 -4 0 -15 -14 -25 -31
-11 -19 -23 -29 -31 -26 -10 4 -13 0 -11 -14 2 -11 0 -17 -4 -14 -5 3 -19 -9
-32 -25 -13 -16 -30 -30 -38 -30 -8 0 -12 -3 -8 -6 6 -7 -60 -74 -74 -74 -5 0
-9 -6 -9 -13 0 -7 -9 -18 -20 -25 -11 -7 -20 -20 -20 -30 0 -14 -2 -15 -10 -2
-6 9 -10 10 -10 3 0 -16 -96 -114 -104 -106 -3 4 -6 1 -6 -5 0 -19 -58 -75
-70 -67 -6 3 -10 3 -9 -2 4 -22 -3 -34 -26 -43 -14 -5 -25 -16 -25 -25 0 -14
-12 -20 -33 -16 -5 1 -6 -3 -2 -9 3 -5 -37 -52 -89 -104 -52 -51 -92 -97 -88
-102 4 -5 -2 -2 -12 6 -11 9 -17 10 -13 3 5 -7 -18 -37 -58 -77 -36 -36 -65
-63 -65 -60 0 2 -6 -1 -14 -8 -10 -9 -11 -15 -2 -20 8 -6 8 -8 -1 -8 -7 0 -43
-29 -79 -65 -37 -36 -70 -65 -75 -65 -5 0 -9 -5 -9 -11 0 -6 -24 -33 -52 -62
-29 -28 -52 -54 -51 -58 2 -4 -7 -6 -18 -4 -18 4 -19 2 -7 -12 7 -9 8 -14 2
-11 -5 4 -23 -9 -39 -27 -15 -19 -32 -32 -36 -29 -5 3 -9 0 -9 -6 0 -14 -70
-84 -92 -93 -10 -3 -18 -11 -18 -17 0 -6 -20 -30 -44 -55 -24 -24 -41 -47 -38
-50 4 -4 3 -5 -3 -3 -14 4 -156 -138 -147 -148 4 -5 -2 -2 -12 6 -11 8 -17 10
-13 3 8 -12 -44 -73 -63 -73 -5 0 -10 -4 -10 -8 0 -15 -98 -111 -105 -104 -5
4 -5 -1 -2 -11 4 -11 3 -16 -3 -12 -6 3 -10 1 -10 -6 0 -7 -3 -9 -7 -6 -3 4
-12 -1 -19 -11 -9 -11 -13 -13 -14 -4 0 7 -4 11 -9 7 -5 -3 -16 2 -24 10 -9 8
-21 15 -27 15 -7 0 -10 7 -6 15 3 8 0 14 -7 12 -7 -1 -11 3 -10 10 2 7 -4 10
-12 7 -8 -4 -15 -2 -15 3 0 15 -36 53 -49 53 -6 0 -11 4 -11 9 0 13 -58 70
-64 63 -3 -3 -6 2 -6 11 0 8 -9 19 -21 22 -13 4 -18 12 -15 21 3 9 1 12 -4 9
-6 -3 -13 1 -16 9 -3 9 -13 16 -22 16 -8 0 -13 3 -9 6 8 8 -18 34 -33 34 -6 0
-9 4 -5 9 3 5 -4 12 -15 16 -18 6 -24 17 -21 38 0 4 -3 6 -7 5 -4 -2 -20 10
-35 25 -15 17 -31 26 -38 21 -8 -4 -9 -3 -5 5 8 12 -18 44 -28 34 -3 -4 -6 1
-6 11 0 9 -4 14 -10 11 -6 -3 -10 0 -10 8 0 8 -7 18 -16 21 -8 3 -12 10 -9 16
3 5 0 7 -9 4 -9 -3 -17 2 -21 15 -3 12 -13 21 -21 21 -8 0 -12 5 -9 10 3 6 -1
10 -10 10 -9 0 -13 4 -10 10 3 5 -1 10 -10 10 -12 0 -15 5 -11 17 4 10 4 14 0
11 -6 -6 -15 -1 -49 30 -9 8 -12 18 -9 24 4 7 2 8 -4 4 -7 -4 -12 -2 -12 3 0
6 -7 11 -15 11 -8 0 -14 6 -13 13 2 6 -5 11 -15 10 -10 0 -16 1 -13 4 5 5 -8
24 -36 50 -9 9 -15 20 -12 25 3 4 -3 5 -12 1 -11 -4 -15 -2 -11 4 4 6 0 14 -9
17 -8 3 -12 10 -9 16 3 5 0 7 -9 4 -9 -3 -17 2 -21 15 -3 12 -11 19 -16 16 -5
-4 -9 1 -9 10 0 10 -5 13 -12 9 -8 -5 -9 -2 -5 10 4 9 3 15 -2 11 -6 -3 -13 1
-18 8 -4 7 -19 21 -33 30 -13 9 -21 17 -16 17 5 0 -1 8 -12 19 -12 10 -18 21
-14 25 4 4 0 6 -8 4 -8 -2 -14 2 -13 9 2 8 -4 10 -14 6 -10 -4 -14 -2 -10 4 4
6 0 13 -8 17 -8 3 -15 12 -15 21 0 13 -12 19 -32 16 -5 0 -8 5 -8 11 0 7 -16
26 -35 43 -19 16 -35 37 -35 45 0 12 -2 13 -9 1 -7 -11 -10 -9 -16 8 -3 11
-12 21 -18 21 -7 0 -21 16 -31 35 -10 19 -23 32 -27 29 -5 -3 -9 0 -9 5 0 6
-7 11 -16 11 -10 0 -14 6 -10 15 5 13 -5 19 -25 17 -4 -1 -10 10 -13 23 -4 14
-10 24 -14 24 -17 -3 -35 2 -29 7 3 4 -13 25 -36 48 -23 22 -41 45 -39 49 1 5
-2 6 -7 3 -5 -4 -19 7 -31 24 -12 17 -26 28 -31 25 -5 -4 -9 -1 -9 5 0 15 -46
60 -61 60 -7 0 -9 3 -6 6 3 4 -7 19 -23 34 -16 15 -26 30 -22 34 3 4 -1 4 -11
0 -10 -3 -17 -1 -17 5 0 13 -42 57 -51 54 -4 -1 -10 9 -13 22 -4 16 -11 22
-21 19 -9 -4 -15 0 -15 9 0 8 -7 17 -15 21 -8 3 -15 13 -15 23 0 15 -2 16 -10
3 -8 -13 -10 -12 -10 3 0 10 -7 20 -15 23 -8 4 -12 10 -9 15 3 5 0 8 -8 7 -7
-2 -12 2 -11 9 2 7 -4 10 -12 7 -10 -4 -15 0 -15 16 0 11 -4 19 -9 15 -6 -3
-15 4 -22 16 -9 17 -13 19 -20 8 -7 -11 -9 -10 -9 4 0 17 -49 76 -51 60 0 -4
-4 2 -10 15 -5 13 -13 20 -19 17 -5 -3 -10 0 -10 7 0 16 -36 49 -44 41 -3 -4
-6 -1 -6 6 0 16 -26 42 -34 34 -3 -4 -6 1 -6 10 0 9 -5 17 -11 17 -5 0 -7 4
-4 10 3 6 -1 7 -9 4 -9 -3 -16 -2 -16 3 0 5 -10 20 -22 33 -13 14 -22 28 -20
33 1 5 -2 6 -8 2 -5 -3 -10 -1 -10 5 0 6 -5 8 -10 5 -6 -3 -10 -1 -10 5 0 17
-26 40 -47 41 -11 0 -13 3 -5 6 16 6 -3 33 -25 33 -8 0 -11 5 -8 10 3 6 -4 14
-17 19 -13 6 -19 10 -14 10 5 1 3 8 -4 16 -7 8 -16 12 -21 9 -5 -3 -9 2 -9 11
0 8 -10 20 -22 25 -13 5 -19 9 -15 9 4 1 -3 12 -15 25 -13 13 -26 21 -30 19
-5 -2 -8 2 -8 10 0 14 -44 57 -59 57 -5 0 -11 9 -14 21 -3 12 -10 18 -16 14
-6 -3 -11 -1 -11 5 0 15 -46 60 -54 53 -3 -4 -6 0 -6 8 0 16 -66 80 -74 71 -3
-3 -6 0 -6 7 0 16 -26 42 -34 34 -3 -4 -6 1 -6 10 0 9 -5 17 -11 17 -5 0 -7 4
-4 10 3 6 -1 7 -9 4 -9 -3 -16 -2 -16 3 0 5 -10 20 -22 33 -13 14 -22 28 -20
33 1 5 -2 6 -8 2 -5 -3 -10 -1 -10 5 0 6 -4 8 -10 5 -5 -3 -10 -1 -10 5 0 15
-25 40 -40 40 -6 0 -8 5 -5 10 3 6 -1 10 -9 10 -8 0 -18 5 -22 12 -5 7 -3 8 7
3 12 -8 12 -6 0 8 -7 9 -20 17 -29 17 -8 0 -13 3 -9 6 3 4 -1 14 -10 23 -9 9
-19 14 -21 11 -3 -3 -9 6 -14 20 -7 20 -11 22 -18 10 -8 -13 -10 -12 -10 3 0
19 -42 67 -60 67 -5 0 -9 5 -8 12 2 6 -8 17 -22 25 -14 7 -21 13 -17 13 4 0 2
6 -5 14 -7 8 -16 12 -20 9 -5 -2 -8 1 -8 7 0 15 -25 40 -41 40 -7 0 -10 3 -6
6 7 8 -17 34 -32 34 -6 0 -10 3 -10 8 3 17 -2 32 -9 30 -4 -2 -71 61 -149 140
-78 78 -148 142 -154 142 -7 0 -10 3 -7 6 8 7 -92 110 -104 106 -4 -1 -8 3 -8
9 0 6 -13 23 -30 39 -16 15 -26 31 -22 35 4 3 3 6 -3 5 -5 -1 -17 -2 -25 -1
-13 1 -13 2 0 11 11 7 12 10 2 10 -16 0 -42 24 -42 38 0 5 -9 12 -21 15 -12 3
-18 10 -15 16 4 6 -4 13 -18 17 -16 4 -23 11 -19 20 5 13 -8 19 -30 15 -5 -1
-6 3 -3 8 4 5 2 12 -3 16 -15 8 -4 45 18 65 12 9 18 20 14 24 -3 3 -1 6 6 6
14 0 47 30 34 31 -4 0 2 4 15 10 13 5 20 13 17 19 -6 9 8 14 28 11 4 0 6 3 5
7 -2 4 12 22 29 39 18 18 33 37 33 43 0 6 4 9 8 6 5 -3 19 8 31 25 12 17 27
27 33 23 7 -5 9 -1 5 9 -3 10 -2 17 3 17 15 0 50 33 44 42 -3 4 0 8 5 8 14 0
51 37 51 51 0 5 5 7 10 4 6 -3 10 -2 10 3 0 5 11 15 25 22 13 7 23 16 22 20
-1 5 21 30 48 56 28 27 49 52 48 56 -2 5 4 8 12 8 8 0 15 7 15 15 0 9 6 12 15
8 9 -3 15 -1 13 5 -2 6 16 28 40 50 23 22 42 46 42 52 0 6 4 9 9 6 5 -3 18 9
30 27 11 17 21 28 21 24 0 -4 6 -2 14 5 8 7 12 16 9 21 -2 4 3 7 11 7 8 0 17
9 21 20 3 11 9 19 13 17 4 -1 8 2 9 8 0 5 14 15 30 22 15 7 22 12 15 13 -10 0
-10 3 2 15 8 8 18 15 22 15 9 0 54 52 54 63 0 5 3 6 8 4 4 -2 18 8 32 21 14
14 19 22 13 18 -7 -4 -13 -5 -13 -2 0 3 14 12 30 21 17 9 30 22 30 30 0 8 6
14 13 12 6 -1 11 3 10 10 -2 6 6 15 17 18 11 4 18 9 16 13 -2 4 2 13 10 20 8
7 14 9 14 5 1 -4 7 3 15 17 7 14 17 25 22 25 4 0 7 3 6 8 -2 4 1 7 7 7 16 0
59 49 47 54 -11 4 18 10 36 7 5 -1 6 3 3 8 -3 5 1 11 9 15 8 3 15 13 15 21 0
9 5 13 10 10 5 -3 10 1 10 10 0 9 5 13 10 10 6 -3 10 -1 10 4 0 6 8 11 18 12
9 0 12 3 5 5 -13 6 25 47 52 57 9 4 13 11 10 17 -3 5 1 10 10 10 9 0 13 5 10
10 -3 6 1 10 10 10 9 0 13 5 10 10 -6 9 7 14 27 11 4 0 4 7 1 16 -4 10 -2 14
5 9 6 -3 13 3 17 14 4 11 10 18 15 15 5 -3 15 6 22 19 7 14 16 25 21 25 4 1 7
4 8 9 0 4 11 13 25 20 13 7 24 20 24 28 0 8 3 13 8 11 9 -6 52 39 45 47 -4 3
1 6 10 6 8 0 18 9 22 20 3 11 12 19 18 17 7 -1 11 3 10 10 -2 6 6 15 17 18 11
4 18 11 15 16 -4 5 1 9 10 9 9 0 13 5 10 10 -3 6 1 10 9 10 9 0 16 7 16 16 0
8 3 13 8 11 4 -3 13 1 20 9 7 8 10 14 6 14 -4 0 6 10 22 23 16 12 32 21 37 19
5 -1 6 2 2 8 -3 5 -1 10 5 10 6 0 8 5 5 10 -3 6 1 10 10 10 9 0 13 5 10 10 -3
6 1 10 9 10 9 0 16 7 16 16 0 8 4 13 8 10 5 -3 15 6 22 19 7 13 17 22 21 20 4
-3 10 4 14 15 3 11 12 19 18 17 7 -1 11 4 10 11 -2 6 1 12 6 12 5 0 26 17 47
37 22 20 30 30 20 22 -14 -10 -18 -10 -12 -1 4 7 19 17 32 22 13 5 24 16 24
25 0 8 6 14 13 12 6 -1 11 3 10 10 -2 6 6 15 17 18 10 3 22 15 25 26 4 10 10
17 15 14 4 -3 10 4 13 15 3 11 11 19 19 18 7 -2 12 3 11 10 -2 6 2 12 8 12 15
0 39 26 32 34 -4 3 2 6 13 6 16 0 17 2 4 10 -13 8 -12 10 5 11 11 1 24 1 28 0
5 -1 6 3 3 8 -7 11 19 33 28 23 4 -4 7 -2 6 3 -5 21 0 36 10 30 6 -3 10 1 10
10 0 9 4 14 9 10 5 -3 12 4 16 15 4 11 10 18 15 15 5 -3 16 7 24 22 8 15 18
28 23 28 4 0 7 3 6 7 -2 5 4 8 12 8 8 0 14 6 12 13 -1 6 3 11 10 10 6 -2 15 6
18 17 4 11 11 18 16 14 6 -3 13 4 16 16 3 12 11 19 19 16 8 -3 13 -2 13 2 -3
20 2 33 11 27 6 -3 10 -1 10 5 0 6 4 8 10 5 6 -4 7 1 3 11 -5 13 -3 16 10 11
9 -3 16 -3 14 1 -1 5 10 20 25 34 15 14 25 28 21 31 -3 4 1 7 11 7 9 0 14 5
11 10 -3 6 0 10 8 10 7 0 20 11 27 25 7 13 16 23 19 21 9 -4 40 31 34 38 -4 3
1 6 10 6 10 0 17 7 17 16 0 8 5 12 10 9 6 -3 10 2 10 11 0 10 3 15 6 11 8 -8
33 16 27 26 -2 4 2 7 9 7 7 0 24 12 38 27 14 15 18 23 10 18 -8 -5 9 14 39 43
30 29 58 52 63 52 4 0 8 7 8 16 0 8 4 13 8 10 5 -3 15 4 23 15 20 29 62 74 66
72 2 -2 3 -1 3 2 -1 10 25 33 32 29 4 -2 9 5 13 16 4 11 11 18 16 15 5 -4 9
-3 9 2 0 12 46 63 52 58 2 -3 10 5 17 18 6 12 27 33 46 46 19 13 35 30 35 38
0 8 4 12 10 8 5 -3 17 7 27 22 10 15 25 35 33 44 8 9 26 33 40 52 14 19 28 33
32 31 4 -2 9 5 13 16 4 11 10 18 15 15 5 -3 11 4 15 15 4 11 10 18 15 15 5 -3
11 4 15 15 3 11 13 20 21 20 8 0 13 4 9 9 -3 5 4 12 15 16 11 4 17 11 14 17
-5 7 -1 9 9 5 10 -4 14 -2 11 7 -3 7 7 18 21 26 14 7 23 16 20 18 -6 6 43 52
56 52 5 0 9 7 9 15 0 13 12 19 32 16 4 0 4 7 1 16 -4 10 -2 14 5 9 6 -3 13 3
17 14 6 18 17 24 38 21 4 0 6 2 5 7 -2 4 7 20 20 36 12 16 22 25 22 20 0 -5 5
-1 11 9 6 9 15 14 21 11 7 -4 8 -2 4 5 -9 13 18 43 29 33 5 -4 5 1 2 11 -4 11
-3 16 3 12 11 -7 42 19 34 28 -3 3 4 8 15 12 12 3 19 10 16 15 -3 5 4 11 15
15 11 4 18 11 14 16 -3 6 3 13 15 16 11 3 19 8 17 12 -3 4 3 12 13 18 15 9 17
6 19 -21 12 -155 115 -335 253 -441 196 -152 469 -182 680 -75 84 42 99 52
138 85 71 61 125 129 158 195 15 30 30 57 33 60 3 3 7 12 8 20 2 8 11 42 19
75 17 63 22 210 10 282 -4 24 -17 69 -29 100 -12 32 -22 61 -23 65 0 4 -6 13
-12 20 -7 6 -13 17 -13 23 -1 23 -109 149 -169 195 -44 34 -152 90 -173 90
-10 0 -18 4 -18 8 0 5 -6 9 -12 10 -30 2 -65 9 -73 13 -6 3 -23 6 -39 7 -36 2
-41 7 -24 21 7 6 24 20 38 32 14 11 18 17 10 13 -12 -6 -13 -5 -2 7 7 8 18 14
25 14 7 1 11 6 10 12 -2 7 6 15 17 18 11 4 18 11 15 16 -6 8 8 13 28 10 4 0 6
2 6 6 -3 21 3 32 21 38 11 4 18 11 15 16 -4 5 1 9 9 9 8 0 17 8 19 18 4 13 5
12 6 -5 2 -39 73 -69 106 -45 21 15 33 57 22 78 -15 26 -33 44 -46 44 -6 0
-11 3 -11 6 0 9 53 49 62 47 4 -2 5 4 2 12 -4 10 0 15 11 15 9 0 14 3 12 8 -3
4 10 18 28 32 18 14 41 37 52 52 10 16 24 28 31 28 6 0 12 6 12 14 0 8 9 18
21 21 11 4 18 9 15 12 -6 7 44 53 57 53 6 0 8 2 5 5 -7 7 64 80 86 88 11 4 16
13 12 23 -3 8 -2 12 3 9 5 -3 16 4 24 15 7 11 16 18 19 15 2 -3 11 6 18 20 8
14 19 24 25 21 7 -2 12 2 12 10 0 8 -6 14 -12 14 -7 0 -17 12 -23 26 -7 14
-17 22 -22 19 -6 -3 -10 1 -10 9 0 9 -5 16 -10 16 -6 0 -20 11 -32 25 -11 13
-25 22 -30 19 -4 -3 -8 2 -8 11 0 9 -5 13 -10 10 -6 -3 -13 1 -16 9 -3 9 -12
16 -20 16 -8 0 -14 3 -14 8 0 4 -14 13 -31 21 -23 10 -28 16 -18 22 10 6 8 9
-8 9 -12 0 -23 3 -25 8 -6 15 -87 64 -96 58 -5 -3 -16 2 -23 12 -12 15 -12 16
1 7 9 -5 7 -2 -3 7 -11 10 -23 15 -28 12 -5 -3 -9 0 -9 5 0 6 -5 11 -11 11 -6
0 -17 7 -25 15 -8 8 -22 11 -31 8 -11 -4 -14 -3 -9 5 4 7 1 12 -8 12 -9 0 -16
5 -16 11 0 5 -4 8 -9 4 -5 -3 -15 0 -23 7 -7 7 -20 14 -28 16 -8 2 -18 8 -21
14 -3 5 -9 9 -13 9 -20 -3 -26 0 -20 12 5 7 0 6 -11 -3 -11 -9 -16 -10 -11 -2
5 8 -1 12 -18 12 -14 0 -26 5 -26 10 0 6 -9 10 -20 10 -11 0 -20 4 -20 8 0 4
-11 9 -25 10 -14 1 -37 9 -50 18 -14 9 -25 13 -25 9 0 -4 -7 -2 -15 5 -8 6
-20 8 -26 4 -8 -4 -9 -3 -5 4 5 8 -1 11 -16 9 -13 -1 -22 3 -21 9 1 6 -4 11
-12 11 -8 0 -11 -5 -8 -10 4 -6 1 -7 -8 -1 -8 4 -23 10 -33 11 -11 2 -25 8
-33 14 -7 6 -13 8 -13 5 0 -4 -9 -2 -20 4 -15 8 -20 8 -20 -2 0 -11 -2 -10 -9
0 -4 7 -24 14 -43 15 -20 1 -34 6 -31 11 3 5 -6 7 -21 4 -14 -3 -34 1 -43 8
-13 9 -22 9 -30 2 -7 -6 -13 -6 -13 -1 0 9 -21 12 -88 13 -18 0 -44 5 -58 10
-18 7 -23 7 -18 -1 4 -8 1 -8 -13 -1 -11 6 -25 7 -33 2 -8 -5 -19 -5 -25 -1
-8 7 -330 8 -330 2 0 -2 -8 -4 -18 -6 -9 -2 -15 0 -12 4 5 9 -22 11 -30 2z
m-1925 -1165 c0 -2 -8 -10 -17 -17 -16 -13 -17 -12 -4 4 13 16 21 21 21 13z"/>
<path d="M8010 12022 c-16 -18 -17 -28 -6 -54 17 -37 61 -31 77 10 18 47 -37
81 -71 44z"/>
<path d="M7935 11746 c-11 -6 -22 -14 -25 -17 -3 -3 -15 -11 -27 -18 -13 -6
-23 -19 -23 -27 0 -8 -4 -13 -8 -10 -4 2 -14 -4 -21 -16 -9 -14 -9 -18 -1 -13
7 4 5 -4 -4 -17 -9 -14 -13 -28 -9 -31 3 -4 2 -7 -3 -7 -17 0 -8 -128 11 -156
12 -18 13 -24 4 -19 -8 3 -4 -2 8 -13 12 -11 19 -22 16 -26 -4 -3 -1 -6 6 -6
7 0 9 -4 6 -10 -3 -5 0 -7 8 -4 8 3 17 -2 20 -10 4 -9 13 -16 22 -16 8 0 15
-4 15 -10 0 -5 14 -10 31 -10 19 0 28 -4 23 -11 -4 -8 0 -8 15 0 14 8 21 8 21
1 0 -12 22 -9 32 5 5 6 8 5 8 -4 0 -11 3 -11 17 0 9 8 18 13 20 12 10 -8 43
-1 38 7 -3 6 3 10 14 10 11 0 23 5 26 10 4 6 11 7 17 4 7 -4 8 -2 4 5 -5 7 2
21 16 34 14 13 22 29 20 36 -3 8 0 11 7 7 7 -4 11 1 11 13 0 11 4 22 8 25 14
8 12 106 -2 106 -6 0 -4 5 4 10 12 8 12 10 1 10 -8 0 -11 7 -8 20 3 13 0 20
-9 20 -8 0 -14 9 -14 20 0 11 -4 20 -10 20 -5 0 -10 7 -10 15 0 8 -5 14 -12
13 -7 -2 -12 4 -13 12 -1 8 -7 14 -14 12 -8 -2 -21 4 -31 13 -9 8 -20 12 -23
8 -4 -3 -7 -1 -7 5 0 16 -147 14 -175 -2z"/>
<path d="M8401 11616 c-33 -35 -23 -90 19 -104 40 -15 66 -5 83 31 17 34 13
54 -16 80 -28 24 -59 21 -86 -7z"/>
<path d="M8542 11409 c-203 -56 -327 -199 -356 -410 -14 -96 33 -260 95 -329
11 -14 26 -32 33 -40 28 -38 148 -111 201 -125 106 -26 144 -28 222 -11 150
31 264 116 331 248 20 40 38 80 40 88 6 27 12 75 13 115 1 34 -1 57 -15 142
-1 7 -5 16 -9 19 -4 4 -7 16 -7 26 0 10 -5 18 -11 18 -5 0 -7 5 -4 10 3 6 1
10 -4 10 -6 0 -11 7 -11 15 0 30 -98 131 -165 171 -111 65 -240 85 -353 53z"/>
<path d="M8016 11134 c-36 -36 -4 -92 41 -71 31 14 39 44 17 68 -21 23 -37 24
-58 3z"/>
<path d="M9314 10793 c5 -9 0 -13 -14 -13 -11 0 -23 -7 -26 -15 -4 -8 -10 -13
-14 -10 -5 3 -11 -4 -15 -15 -4 -11 -11 -18 -16 -15 -5 4 -9 -3 -9 -14 0 -10
-5 -21 -10 -23 -13 -4 -23 -51 -21 -98 0 -19 1 -47 2 -61 0 -15 9 -36 19 -47
10 -11 16 -23 13 -26 -4 -3 -1 -6 6 -6 7 0 9 -4 6 -10 -3 -5 3 -10 15 -10 12
0 18 -4 15 -10 -3 -5 1 -10 9 -10 9 0 16 -5 16 -11 0 -5 5 -7 10 -4 6 3 10 2
10 -4 0 -6 7 -8 15 -5 8 4 15 1 15 -5 0 -6 5 -11 11 -11 5 0 7 6 3 13 -6 10
-4 10 7 0 16 -15 85 -17 94 -3 3 6 17 10 30 10 12 0 25 7 29 15 3 8 11 15 19
15 7 0 21 14 30 30 10 17 22 30 28 30 5 0 9 5 9 11 0 5 -5 7 -11 3 -6 -3 -4 5
5 18 9 14 13 28 9 31 -3 4 -2 7 3 7 6 0 8 16 6 35 -2 19 -9 35 -16 35 -6 0 -5
4 3 9 12 8 12 12 2 25 -7 8 -10 19 -7 25 3 5 -1 11 -9 15 -8 3 -15 13 -15 21
0 9 -4 13 -10 10 -5 -3 -10 3 -10 14 0 14 -6 21 -19 21 -10 0 -24 7 -31 15 -7
8 -16 12 -21 9 -5 -3 -9 0 -9 5 0 7 -28 11 -71 11 -53 0 -68 -3 -63 -12 5 -8
0 -7 -11 2 -11 9 -16 10 -11 3z"/>
<path d="M8056 10548 c-70 -64 -1 -166 89 -132 22 9 45 57 40 85 -6 32 -49 69
-79 69 -14 0 -36 -10 -50 -22z"/>
<path d="M8966 10458 c-23 -32 -20 -54 11 -77 43 -34 93 -7 93 51 0 48 -75 67
-104 26z"/>
<path d="M9834 10409 c-66 -33 -40 -139 33 -139 33 0 43 7 65 38 39 57 -34
132 -98 101z"/>
<path d="M8551 10363 c-23 -20 -34 -39 -38 -66 -4 -35 14 -97 29 -97 3 0 13
-6 20 -14 59 -58 184 15 174 102 -3 32 -45 94 -57 86 -4 -2 -10 0 -14 6 -13
21 -80 11 -114 -17z"/>
<path d="M8096 10278 c5 -8 2 -9 -10 -5 -10 4 -19 1 -22 -8 -4 -8 -10 -12 -15
-9 -5 3 -9 0 -9 -5 0 -6 -3 -10 -7 -8 -11 3 -53 -40 -45 -47 3 -3 0 -6 -7 -6
-8 0 -11 -6 -7 -16 3 -8 2 -12 -4 -9 -9 6 -14 -8 -11 -27 0 -5 -2 -8 -7 -8
-12 0 -3 -141 10 -158 11 -13 10 -15 -2 -8 -9 4 -8 1 3 -7 9 -8 17 -19 17 -25
0 -6 9 -16 20 -22 12 -6 18 -16 14 -23 -4 -7 -4 -9 1 -5 4 4 14 0 22 -8 8 -8
19 -12 24 -9 5 4 9 0 9 -8 0 -10 7 -13 20 -10 11 3 20 0 20 -6 0 -15 93 -14
109 2 10 9 12 9 7 0 -9 -16 47 7 75 30 10 9 19 14 19 11 0 -3 7 1 15 10 8 8
15 20 15 26 0 6 5 8 12 4 7 -5 9 -2 5 9 -3 9 0 18 9 21 8 3 14 14 14 25 0 11
5 23 11 27 8 4 7 9 -2 15 -12 7 -12 9 0 9 11 0 11 3 0 17 -8 9 -9 14 -3 10 7
-4 12 2 12 18 0 16 -5 22 -12 18 -6 -4 -4 2 4 12 9 11 10 16 3 11 -9 -5 -13
-1 -13 12 0 38 -60 122 -87 122 -8 0 -11 5 -8 10 4 6 -5 10 -19 10 -14 0 -26
5 -26 10 0 6 -34 10 -81 10 -59 0 -78 -3 -73 -12z"/>
<path d="M9471 10261 c-34 -48 -21 -97 31 -120 27 -12 35 -12 57 0 37 21 57
66 42 92 -10 15 -10 18 1 12 7 -4 1 4 -14 19 -39 37 -90 36 -117 -3z"/>
<path d="M8886 10218 c-9 -12 -16 -16 -21 -9 -3 6 -11 9 -16 5 -6 -4 -6 -11 2
-20 10 -12 9 -13 -6 -8 -13 5 -16 4 -11 -4 5 -8 1 -10 -11 -5 -16 6 -17 5 -3
-13 14 -18 14 -18 -3 -4 -17 12 -20 12 -29 -3 -5 -10 -14 -14 -20 -11 -7 5 -9
2 -6 -8 4 -8 -2 -20 -13 -26 -10 -7 -19 -21 -19 -32 0 -11 -6 -19 -12 -17 -8
1 -12 -6 -10 -17 2 -11 -1 -15 -8 -11 -6 3 -10 3 -9 -2 3 -18 -1 -34 -9 -29
-4 2 -9 -5 -9 -17 -2 -17 0 -19 7 -7 6 9 10 10 10 3 0 -6 -4 -15 -10 -18 -5
-3 -10 -43 -10 -87 0 -65 3 -83 18 -94 13 -11 14 -13 1 -9 -9 4 -16 0 -16 -9
0 -8 6 -12 15 -8 10 3 13 1 8 -6 -4 -7 -3 -12 2 -12 6 0 8 -9 5 -21 -6 -22 29
-63 43 -51 5 4 2 -2 -6 -12 -14 -18 -13 -19 3 -13 15 6 17 3 13 -16 -3 -12 -3
-17 0 -10 6 13 34 6 34 -9 0 -5 -5 -6 -12 -2 -7 4 -8 3 -4 -5 4 -7 15 -11 24
-10 30 3 35 -1 22 -17 -8 -8 -9 -14 -4 -13 5 1 11 1 14 -1 3 -1 16 -4 30 -6
14 -3 27 -9 28 -14 2 -6 10 -10 18 -10 9 0 13 -4 10 -8 -3 -5 1 -9 9 -9 8 0
12 3 10 7 -2 3 7 6 20 6 13 0 21 -4 19 -8 -3 -5 -10 -6 -15 -3 -5 4 -9 2 -9
-3 0 -5 11 -9 25 -9 16 0 22 4 18 11 -5 8 -3 8 8 0 22 -16 128 -12 139 6 5 8
10 11 10 7 0 -5 16 1 35 13 19 12 39 19 44 15 6 -3 16 3 23 15 7 11 21 20 30
20 12 0 15 5 11 17 -5 12 -2 15 10 10 15 -6 22 3 18 26 -1 6 13 11 30 9 3 -1
6 5 6 13 0 8 -5 12 -11 9 -6 -3 -2 2 9 11 11 9 19 23 17 32 -2 10 1 12 9 7 7
-4 10 -3 5 4 -3 6 -2 14 4 17 8 5 7 12 -2 23 -11 13 -10 15 5 9 16 -6 16 -5 0
21 -17 27 -17 27 4 9 20 -17 20 -17 16 8 -3 14 -10 22 -17 19 -6 -3 -4 0 4 8
24 21 14 148 -10 133 -5 -3 -6 5 -2 17 4 16 2 19 -9 13 -12 -8 -12 -6 0 8 13
17 12 18 -11 21 -15 1 -20 39 -5 48 7 5 3 8 -11 8 -19 0 -22 4 -17 23 5 16 4
18 -3 8 -9 -12 -13 -12 -26 2 -12 11 -13 17 -3 20 7 3 4 6 -6 6 -10 1 -15 6
-12 11 3 6 -1 10 -9 10 -9 0 -16 5 -16 12 0 9 -3 9 -11 1 -6 -6 -18 -9 -26 -6
-12 5 -12 7 -1 14 18 12 -5 27 -38 23 -25 -2 -33 11 -11 19 6 3 -52 5 -131 5
-130 0 -144 -2 -156 -20z m24 2 c0 -5 -5 -10 -11 -10 -5 0 -7 5 -4 10 3 6 8
10 11 10 2 0 4 -4 4 -10z m495 -269 c3 -5 1 -12 -5 -16 -5 -3 -10 1 -10 9 0
18 6 21 15 7z m-275 -429 c0 -5 -7 -9 -15 -9 -8 0 -12 4 -9 9 3 4 9 8 15 8 5
0 9 -4 9 -8z"/>
<path d="M9365 10050 c-3 -6 1 -7 9 -4 18 7 21 14 7 14 -6 0 -13 -4 -16 -10z"/>
<path d="M10024 10053 c6 -12 -5 -18 -26 -14 -5 0 -8 -3 -8 -9 0 -5 -4 -10
-10 -10 -16 0 -60 -42 -54 -52 3 -4 1 -8 -5 -8 -23 0 -42 -66 -40 -142 1 -43
6 -75 10 -72 5 3 9 -4 9 -15 0 -11 5 -23 10 -26 6 -4 7 -12 4 -18 -4 -7 -4 -9
0 -5 10 8 36 -14 29 -24 -2 -5 3 -8 11 -8 9 0 16 -4 16 -10 0 -5 9 -10 20 -10
11 0 20 -6 20 -14 0 -9 9 -13 25 -11 14 1 25 -1 25 -4 0 -4 18 -8 41 -10 26
-1 38 2 34 9 -3 5 -1 10 4 10 6 0 11 -4 11 -8 0 -4 9 -8 19 -8 11 0 18 3 16 6
-2 3 11 12 28 20 35 15 97 73 97 90 0 6 5 8 12 4 6 -4 8 -3 5 3 -3 5 1 22 9
37 16 32 19 49 4 26 -5 -8 -10 -10 -10 -4 0 6 3 14 7 18 12 12 14 48 2 62 -8
10 -8 14 -1 14 7 0 6 10 -3 27 -8 15 -11 31 -8 36 3 6 1 7 -5 3 -7 -4 -12 -2
-12 3 0 23 -26 59 -43 60 -4 0 -17 10 -27 23 -11 13 -19 20 -20 15 0 -4 -12
-1 -27 7 -37 18 -157 21 -147 4 5 -8 0 -7 -11 2 -11 9 -16 10 -11 3z"/>
<path d="M7420 9989 c-65 -12 -93 -26 -83 -41 2 -5 -3 -8 -12 -8 -9 0 -13 -4
-10 -10 5 -9 -6 -14 -26 -12 -5 1 -7 -7 -11 -47 -1 -11 -6 -17 -10 -15 -4 3
-8 -6 -9 -20 -1 -43 -1 -96 1 -98 1 -2 4 -16 6 -33 3 -16 10 -33 16 -36 6 -4
8 -14 5 -24 -4 -9 -3 -14 2 -10 14 8 41 -5 41 -20 0 -16 58 -47 71 -39 5 3 9
1 9 -4 0 -4 27 -8 60 -8 33 0 60 4 60 9 0 4 5 5 10 2 6 -4 17 -1 25 5 8 7 15
9 15 5 0 -4 11 4 25 19 15 16 30 24 38 20 6 -4 9 -4 5 1 -4 4 1 20 11 34 25
36 34 64 18 55 -9 -6 -8 -3 1 8 15 18 14 128 0 128 -5 0 -7 4 -3 9 3 5 -1 16
-9 24 -8 8 -13 17 -10 20 3 3 -4 10 -15 17 -12 6 -19 15 -16 21 4 5 -3 9 -15
9 -12 0 -18 5 -15 10 3 6 -1 10 -9 10 -9 0 -16 6 -16 13 0 9 -3 8 -9 -2 -6 -9
-10 -10 -12 -2 -5 14 -79 20 -129 10z"/>
<path d="M9610 9980 c-54 -14 -68 -23 -79 -46 -17 -39 -13 -70 14 -103 34 -39
56 -45 99 -27 41 17 74 73 61 103 -5 10 -8 21 -7 25 1 3 -13 17 -31 30 -23 17
-39 22 -57 18z"/>
<path d="M8394 9728 c-38 -42 -45 -81 -22 -127 47 -95 181 -65 195 44 3 22 -4
39 -26 66 -26 31 -36 36 -78 38 -40 1 -53 -2 -69 -21z"/>
<path d="M7930 9649 c0 -6 -5 -7 -10 -4 -6 4 -28 -11 -48 -32 -33 -34 -39 -46
-41 -91 -1 -33 2 -52 9 -52 6 0 8 -4 5 -10 -3 -5 -1 -10 6 -10 7 0 9 -3 6 -6
-11 -11 57 -65 76 -60 9 2 17 0 17 -6 0 -8 26 -7 70 3 22 6 90 78 91 97 1 10
2 29 3 45 2 15 -1 27 -7 27 -5 0 -7 7 -3 15 3 8 1 15 -4 15 -6 0 -10 5 -10 11
0 15 -51 59 -70 60 -8 1 -32 2 -52 4 -21 2 -38 -1 -38 -6z"/>
<path d="M10603 9608 c-52 -25 -54 -117 -3 -143 57 -30 116 -7 126 49 13 75
-55 127 -123 94z"/>
<path d="M9200 9540 c-9 -6 -10 -10 -3 -10 6 0 15 5 18 10 8 12 4 12 -15 0z"/>
<path d="M9394 9501 c-9 -9 -14 -10 -10 -4 5 9 2 11 -8 7 -9 -3 -16 -14 -16
-23 0 -14 -2 -14 -10 -1 -8 13 -10 12 -10 -2 0 -10 -4 -18 -9 -18 -17 0 -30
-94 -19 -139 8 -34 79 -87 100 -75 7 5 8 3 3 -6 -6 -10 1 -12 35 -6 55 9 97
31 105 56 3 11 11 20 16 20 6 0 8 4 4 9 -3 5 -1 12 4 15 10 7 12 65 2 81 -3 6
-6 12 -6 15 -1 15 -39 60 -50 60 -7 0 -15 4 -17 10 -6 17 -96 18 -114 1z"/>
<path d="M9046 9414 c-34 -25 -17 -94 24 -94 22 0 60 33 60 52 0 40 -51 66
-84 42z"/>
<path d="M9980 9402 c-5 -2 -8 -8 -5 -13 4 -5 -2 -6 -11 -2 -10 4 -15 2 -11
-4 4 -6 -6 -9 -24 -8 -23 1 -33 -4 -44 -24 -8 -14 -14 -20 -15 -13 0 6 -5 12
-11 12 -6 0 -8 -7 -5 -16 3 -8 2 -13 -2 -10 -9 5 -42 -28 -42 -42 0 -4 -12
-18 -28 -32 -15 -14 -22 -21 -15 -16 10 6 12 4 7 -8 -3 -9 -10 -16 -15 -16 -5
0 -9 -7 -9 -16 0 -9 -5 -12 -12 -8 -10 6 -10 4 0 -8 9 -11 10 -18 2 -23 -5 -3
-10 -1 -10 6 0 7 -3 9 -6 6 -4 -4 -1 -14 7 -24 8 -9 9 -14 2 -10 -9 6 -11 -21
-10 -107 1 -94 4 -113 16 -108 10 4 13 1 8 -11 -3 -9 -2 -17 2 -17 5 0 7 -10
4 -22 -3 -14 -1 -18 4 -12 6 9 11 8 21 -2 8 -9 9 -14 2 -14 -7 0 -6 -5 2 -14
7 -8 16 -12 21 -9 4 2 7 -3 7 -12 0 -11 5 -15 14 -12 9 4 13 0 11 -11 -3 -23
16 -34 34 -19 12 10 13 9 2 -10 -10 -19 -9 -23 4 -23 10 0 13 5 9 13 -5 8 -3
8 9 -2 9 -7 15 -17 12 -21 -3 -5 -1 -11 4 -14 5 -4 13 -1 17 5 5 8 3 9 -7 4
-8 -5 -11 -4 -6 1 10 11 22 8 22 -6 0 -5 5 -9 10 -7 6 1 9 6 7 11 -2 5 4 4 12
-3 8 -7 12 -20 10 -29 -5 -15 -4 -15 8 -2 17 19 46 27 31 8 -9 -10 -1 -14 39
-16 39 -2 53 1 64 15 11 14 13 14 9 2 -5 -12 0 -16 19 -15 14 1 28 5 32 9 4 3
-3 4 -15 2 -12 -2 -19 0 -16 6 4 5 10 7 14 5 4 -3 13 -1 21 4 8 5 21 5 31 -1
13 -7 22 -3 36 14 10 12 26 21 36 19 10 -2 17 3 17 12 0 9 8 16 20 16 12 0 17
5 14 14 -3 8 3 16 16 19 14 4 19 10 14 18 -5 9 -2 10 10 6 10 -4 15 -3 11 3
-3 6 2 10 11 10 15 0 16 2 3 13 -8 6 -13 11 -10 10 11 -6 35 34 38 65 1 19 8
42 15 50 10 12 10 14 1 8 -7 -4 -13 -2 -13 3 0 6 7 11 16 11 14 0 15 2 3 17
-12 14 -12 16 0 9 9 -6 12 -5 9 5 -3 8 -11 13 -18 11 -10 -2 -10 1 1 14 16 19
19 73 5 81 -5 3 -6 1 -2 -5 3 -6 2 -13 -2 -16 -5 -3 -9 5 -8 17 1 12 -2 36 -7
52 -5 17 -9 35 -10 42 0 6 -7 9 -14 6 -8 -3 -13 -2 -12 3 1 5 1 18 0 29 -1 17
-3 18 -12 5 -9 -12 -10 -10 -6 8 5 20 3 22 -11 10 -9 -7 -14 -9 -10 -4 4 5 0
15 -8 23 -8 8 -11 19 -8 25 4 6 -3 5 -16 -2 -19 -10 -21 -10 -12 7 9 16 7 19
-11 20 -11 1 -24 9 -29 17 -5 8 -17 13 -28 11 -11 -2 -23 1 -26 7 -5 7 -2 8 6
3 9 -5 11 -4 6 4 -6 9 -11 9 -24 -1 -13 -11 -14 -11 -7 1 6 11 4 13 -8 8 -10
-3 -17 -3 -17 1 0 8 -168 11 -190 4z"/>
<path d="M8365 9374 c-33 -36 -32 -77 1 -103 36 -28 70 -26 99 5 38 41 30 85
-22 112 -33 18 -52 15 -78 -14z"/>
<path d="M10542 9292 c-27 -21 -35 -61 -16 -87 7 -9 29 -19 49 -22 28 -4 39 0
54 18 23 29 18 68 -12 91 -28 22 -46 22 -75 0z"/>
<path d="M8700 9279 c-60 -16 -64 -17 -104 -34 -65 -28 -196 -137 -196 -164 0
-6 -4 -11 -8 -11 -9 0 -29 -42 -60 -125 -18 -50 -23 -177 -9 -235 11 -44 51
-140 59 -140 5 0 8 -7 8 -15 0 -8 5 -15 10 -15 6 0 10 -4 10 -10 0 -5 23 -32
52 -60 55 -53 145 -106 196 -115 17 -3 41 -9 54 -14 23 -9 133 -7 177 3 88 20
189 74 248 133 30 30 84 109 98 143 4 8 10 22 15 31 15 28 24 101 23 179 -1
78 -28 169 -64 222 -11 14 -19 29 -19 33 0 3 -21 27 -47 53 -57 56 -140 107
-208 128 -59 18 -186 25 -235 13z"/>
<path d="M9780 9269 c0 -5 5 -7 10 -4 6 3 10 8 10 11 0 2 -4 4 -10 4 -5 0 -10
-5 -10 -11z"/>
<path d="M10907 9243 c-2 -1 -15 -4 -31 -7 -16 -3 -33 -11 -38 -18 -4 -7 -8
-10 -8 -6 0 4 -13 -5 -29 -20 -15 -15 -27 -29 -25 -31 2 -2 -4 -10 -12 -18 -8
-9 -13 -22 -10 -30 3 -8 1 -11 -5 -8 -7 5 -9 -17 -8 -64 1 -39 6 -71 11 -71 4
0 8 -7 8 -16 0 -9 11 -27 25 -40 16 -15 20 -24 12 -27 -7 -3 -2 -6 10 -6 12
-1 28 -8 37 -16 8 -8 26 -16 40 -17 14 -1 26 -5 26 -9 0 -7 44 -4 59 5 5 3 12
0 14 -6 4 -10 6 -10 6 0 1 6 9 12 19 12 10 0 23 5 30 12 7 7 12 9 12 5 0 -3
15 8 33 26 19 18 32 35 30 40 -2 4 1 7 7 7 6 0 9 4 5 9 -3 5 -1 12 5 16 6 4 8
10 5 15 -3 5 -1 11 5 15 15 10 13 88 -2 79 -10 -5 -10 -4 -2 5 13 14 -3 61
-21 61 -5 0 -3 5 5 10 10 7 11 10 2 10 -7 0 -28 16 -47 36 -19 20 -35 33 -35
30 0 -4 -10 -1 -22 5 -18 10 -104 19 -111 12z"/>
<path d="M8034 9220 c-12 -4 -24 -15 -27 -24 -4 -9 -10 -15 -14 -14 -4 2 -9
-1 -10 -6 -1 -5 -7 -12 -14 -16 -6 -4 -14 -30 -16 -57 -9 -87 54 -155 144
-155 25 0 49 5 52 10 3 5 16 12 29 16 12 4 20 11 17 16 -3 5 1 12 8 17 21 12
39 71 24 77 -9 3 -9 5 0 5 9 1 10 8 2 29 -6 15 -9 29 -8 31 4 8 -64 70 -72 65
-5 -3 -9 0 -9 5 0 13 -76 13 -106 1z"/>
<path d="M9424 9006 c-33 -33 -36 -40 -31 -79 10 -72 76 -112 144 -86 37 14
82 77 63 89 -5 3 -5 12 -1 19 5 8 3 20 -5 30 -7 9 -20 24 -27 35 -8 11 -30 20
-60 23 -43 5 -49 3 -83 -31z"/>
<path d="M10504 8762 c-27 -4 -51 -30 -56 -58 -5 -31 21 -72 49 -79 45 -11
101 44 88 85 -8 27 -55 57 -81 52z"/>
<path d="M9388 8651 c-33 -33 -16 -82 33 -94 54 -14 90 49 55 96 -17 22 -66
21 -88 -2z"/>
<path d="M10094 8628 c-12 -5 -26 -25 -32 -44 -8 -28 -7 -38 9 -58 26 -34 52
-40 87 -22 35 18 44 38 35 74 -12 48 -55 70 -99 50z"/>
<path d="M9570 8459 c-31 -11 -60 -57 -60 -94 0 -39 61 -96 98 -91 52 7 71 18
87 53 23 47 8 101 -34 126 -32 19 -53 20 -91 6z"/>
<path d="M10010 8384 c-19 -8 -37 -18 -40 -23 -3 -4 -13 -10 -23 -14 -10 -4
-15 -11 -12 -17 3 -5 -1 -10 -9 -10 -9 0 -16 -9 -16 -21 0 -11 -4 -17 -10 -14
-5 3 -10 -3 -10 -14 0 -12 -4 -21 -10 -21 -6 0 -10 -35 -10 -85 0 -50 4 -85
10 -85 6 0 10 -9 10 -20 0 -11 9 -25 20 -32 11 -7 20 -16 20 -20 0 -13 34 -48
46 -48 7 0 14 -4 16 -10 2 -5 13 -11 25 -13 12 -2 26 -6 29 -10 11 -11 92 -8
99 3 5 8 12 7 23 -2 13 -11 14 -11 7 1 -6 11 -4 13 8 8 8 -3 21 1 28 9 7 9 20
13 30 11 11 -3 16 0 13 8 -3 7 0 16 7 21 8 4 10 3 5 -4 -5 -8 -2 -10 8 -6 9 3
14 10 11 14 -3 4 2 10 10 14 8 3 15 12 15 21 0 8 4 15 10 15 5 0 6 7 3 17 -4
10 -2 14 4 10 6 -4 13 4 15 18 3 13 0 26 -6 29 -6 2 -4 5 4 5 15 1 16 13 9
101 -1 8 -9 24 -18 34 -9 12 -11 16 -3 12 11 -7 11 -4 1 12 -7 12 -17 18 -21
16 -5 -3 -8 -2 -7 3 4 24 -2 35 -18 29 -10 -4 -15 -4 -11 -1 7 8 -27 45 -42
45 -5 0 -10 5 -10 11 0 5 -4 7 -10 4 -5 -3 -10 -2 -10 2 0 16 -153 14 -190 -3z"/>
<path d="M9196 8198 c3 -4 -3 -8 -14 -8 -10 0 -27 -9 -37 -20 -10 -11 -24 -20
-32 -20 -7 0 -13 -7 -13 -15 0 -8 -9 -19 -20 -25 -11 -6 -18 -16 -14 -22 4 -5
1 -14 -6 -18 -14 -8 -21 -158 -7 -167 4 -3 6 -11 3 -19 -3 -8 6 -25 19 -38 13
-13 22 -26 19 -28 -2 -3 6 -13 18 -24 15 -12 19 -14 13 -4 -6 9 -3 8 7 -2 9
-10 21 -18 27 -18 6 0 11 -4 11 -10 0 -5 14 -10 31 -10 21 0 28 -4 23 -12 -5
-8 0 -7 11 2 10 8 16 10 12 4 -4 -7 2 -11 18 -11 14 0 22 4 18 10 -4 6 -1 7 8
1 19 -11 40 -14 34 -4 -2 4 7 8 22 8 14 0 32 7 39 16 9 13 13 14 17 4 3 -8 6
-6 6 5 1 10 5 16 9 13 10 -6 42 29 42 45 0 5 5 7 10 4 9 -6 14 8 11 28 0 4 4
7 9 7 6 0 10 12 10 26 0 16 4 23 11 18 7 -4 7 1 -1 16 -8 14 -8 20 -1 16 13
-8 10 52 -3 73 -6 10 -5 12 3 7 6 -4 3 8 -8 27 -11 19 -17 38 -14 41 3 3 -2 8
-11 12 -9 3 -13 10 -10 15 3 5 -2 9 -10 9 -8 0 -18 9 -21 20 -4 11 -15 20 -26
20 -11 0 -17 5 -14 10 4 6 -5 10 -20 10 -14 0 -24 4 -21 8 2 4 -33 8 -79 8
-46 0 -81 -4 -79 -8z"/>
<path d="M9720 8030 c0 -5 -7 -10 -15 -10 -22 0 -43 -59 -34 -93 11 -40 36
-60 77 -62 93 -6 131 96 59 156 -23 19 -87 26 -87 9z"/>
<path d="M10210 7809 c-36 -21 -74 -74 -64 -90 3 -5 1 -9 -4 -9 -5 0 -9 -22
-9 -50 1 -27 4 -50 7 -50 3 0 13 -15 23 -33 17 -31 65 -61 95 -60 6 1 12 -3
12 -9 0 -5 5 -6 12 -2 6 4 28 9 47 10 20 1 37 7 39 13 2 6 8 11 13 11 6 0 19
9 31 20 12 11 18 20 12 20 -5 0 -2 5 6 10 8 5 15 13 16 17 0 4 4 23 8 42 6 24
4 36 -5 42 -10 6 -11 9 -2 9 9 0 6 12 -8 38 -22 39 -69 83 -81 76 -4 -2 -9 0
-13 6 -10 17 -98 10 -135 -11z"/>
<path d="M9458 7693 c-58 -36 -62 -108 -9 -155 30 -26 40 -29 75 -25 65 9 95
53 87 129 -1 4 -14 21 -31 38 -34 35 -79 40 -122 13z"/>
<path d="M9948 7533 c-25 -29 -27 -59 -7 -92 15 -25 26 -31 52 -31 66 0 100
70 58 118 -23 27 -81 30 -103 5z"/>
<path d="M10185 7410 c-30 -12 -54 -46 -57 -78 -2 -33 20 -94 32 -87 5 3 10 1
12 -5 2 -6 21 -12 44 -14 32 -3 47 1 70 19 16 13 30 31 30 42 1 10 3 23 5 28
7 20 -20 74 -42 85 -30 16 -70 21 -94 10z"/>
<path d="M10614 7374 c-54 -26 -68 -85 -34 -141 38 -63 144 -59 169 6 18 51
20 60 10 66 -5 4 -7 11 -3 16 9 16 -51 64 -82 67 -16 1 -43 -5 -60 -14z"/>
<path d="M9826 7195 c-23 -34 -17 -63 17 -88 l27 -21 28 21 c49 36 35 97 -25
109 -24 5 -33 1 -47 -21z"/>
<path d="M10340 7116 c-5 -5 -10 -6 -10 -1 0 4 -10 0 -22 -11 -14 -12 -18 -14
-13 -4 5 8 -3 3 -18 -12 -14 -16 -31 -28 -36 -28 -6 0 -13 -11 -17 -25 -3 -14
-10 -22 -15 -19 -8 5 -14 -17 -10 -38 0 -5 -3 -8 -8 -8 -6 0 -9 -35 -8 -81 2
-64 6 -83 20 -94 10 -7 16 -19 15 -26 -2 -8 3 -13 10 -11 8 1 11 -1 8 -6 -9
-14 70 -72 101 -74 15 -1 33 -4 38 -7 15 -9 75 -9 75 0 0 4 8 5 19 2 10 -2 25
3 35 12 9 9 16 13 16 9 0 -4 7 1 16 12 8 10 12 13 8 5 -4 -9 -2 -12 7 -9 8 3
13 13 13 22 -1 10 1 15 4 12 9 -10 42 26 42 46 0 11 5 16 10 13 6 -3 10 2 10
12 0 11 6 25 13 32 10 11 9 12 -3 6 -12 -6 -13 -5 -2 6 6 7 12 28 12 46 0 20
-5 33 -12 33 -9 0 -8 4 2 10 10 6 11 10 3 10 -7 0 -13 8 -13 18 0 29 -30 82
-46 82 -8 0 -14 8 -14 17 0 9 -3 13 -6 10 -4 -4 -15 2 -24 13 -9 11 -28 22
-41 24 -13 3 -24 5 -24 6 0 8 -127 4 -135 -4z"/>
<path d="M11539 4103 c-13 -16 -12 -17 4 -4 16 13 21 21 13 21 -2 0 -10 -8
-17 -17z"/>
<path d="M9779 2343 c-13 -16 -12 -17 4 -4 16 13 21 21 13 21 -2 0 -10 -8 -17
-17z"/>
</g>
</svg>
